<?xml version="1.0" standalone="no"?>
<!DOCTYPE svg PUBLIC "-//W3C//DTD SVG 20010904//EN"
 "http://www.w3.org/TR/2001/REC-SVG-20010904/DTD/svg10.dtd">
<svg version="1.0" xmlns="http://www.w3.org/2000/svg"
 width="500.000000pt" height="500.000000pt" viewBox="0 0 500.000000 500.000000"
 preserveAspectRatio="xMidYMid meet">
<metadata>
Created by potrace 1.14, written by Peter Selinger 2001-2017
</metadata>
<g transform="translate(0.000000,500.000000) scale(0.100000,-0.100000)"
fill="#000000" stroke="none">
<path d="M1243 4898 c-35 -18 -60 -47 -69 -80 -1 -5 -2 -9 -4 -10 -7 -9 -5
-78 2 -78 5 0 6 -5 3 -10 -4 -6 5 -26 20 -45 14 -19 23 -35 20 -35 -4 0 3 -12
14 -26 12 -15 21 -33 21 -41 0 -8 5 -11 10 -8 6 3 10 0 10 -7 0 -19 23 -68 33
-68 4 0 7 -7 7 -15 0 -8 5 -15 10 -15 6 0 10 -9 10 -20 0 -11 5 -20 10 -20 6
0 10 -7 10 -15 0 -8 5 -15 11 -15 5 0 8 -4 4 -9 -3 -6 0 -13 7 -18 19 -12 40
-52 33 -63 -4 -6 2 -10 11 -10 10 0 14 -3 11 -7 -4 -3 0 -17 8 -30 9 -14 11
-23 5 -23 -6 0 -9 -4 -6 -8 3 -5 -4 -15 -15 -22 -10 -8 -19 -22 -19 -32 0 -10
-5 -18 -10 -18 -6 0 -15 -11 -22 -25 -6 -13 -15 -22 -20 -19 -5 3 -7 2 -6 -3
3 -14 -13 -57 -30 -75 -8 -10 -12 -18 -8 -18 4 0 -2 -13 -13 -29 -11 -15 -18
-30 -16 -33 3 -3 -1 -21 -9 -40 -9 -20 -12 -38 -9 -42 4 -3 1 -6 -6 -6 -7 0
-9 -4 -6 -10 3 -5 3 -10 -2 -10 -4 0 -9 -10 -9 -22 -2 -45 -11 -105 -16 -114
-5 -8 -5 -38 1 -103 1 -10 4 -11 15 -2 10 8 16 9 21 1 4 -7 12 -7 25 0 13 7
21 7 25 0 5 -8 11 -7 21 1 11 9 14 9 14 -1 0 -10 3 -10 15 0 12 10 15 10 15
-1 0 -10 3 -10 12 -1 14 14 32 16 23 3 -3 -6 6 -6 25 -1 21 6 30 5 30 -3 0 -8
3 -8 8 -2 9 13 32 18 32 7 0 -11 31 -9 49 2 8 5 17 3 22 -5 5 -8 9 -9 9 -3 0
13 42 13 52 -1 5 -6 8 -4 8 5 0 13 1 13 10 0 5 -8 10 -10 10 -4 0 11 35 12 46
1 4 -4 13 -2 21 4 9 8 13 8 13 0 0 -7 8 -8 25 -1 16 6 25 6 25 -1 0 -6 7 -6
20 1 15 8 20 8 20 -2 0 -9 3 -9 10 2 8 13 10 13 10 0 0 -11 3 -11 12 -2 14 14
32 16 23 2 -4 -7 3 -7 19 0 19 7 26 6 26 -3 0 -7 3 -8 8 -2 9 13 42 16 42 4 0
-6 10 -5 21 2 15 8 19 8 15 0 -5 -8 0 -8 18 -1 17 6 27 6 32 -1 4 -6 11 -6 20
2 11 9 14 9 14 0 0 -9 5 -9 21 0 15 8 19 8 15 0 -5 -8 0 -8 18 -1 16 6 27 6
31 -1 4 -5 11 -6 18 -2 16 10 58 10 64 0 2 -4 11 -3 19 4 10 8 14 8 14 0 0 -7
8 -8 25 -1 16 6 26 6 31 -1 4 -6 11 -6 20 2 11 9 14 8 14 -2 0 -11 2 -11 10 1
9 13 10 13 10 0 0 -9 3 -11 8 -5 9 13 42 16 42 4 0 -6 10 -5 21 2 16 8 20 8
14 -1 -6 -9 -3 -9 12 -1 14 7 23 7 31 -1 9 -9 12 -9 12 0 0 7 5 12 11 12 5 0
8 -4 4 -9 -3 -6 6 -6 25 -1 20 6 30 5 30 -2 0 -6 6 -6 15 2 12 10 15 10 15 -1
0 -9 3 -10 8 -4 9 13 42 16 42 4 0 -5 11 -4 25 1 13 5 27 5 30 1 3 -5 21 -5
40 -1 19 4 37 4 40 0 3 -5 19 -5 35 0 18 5 32 5 35 -1 4 -5 11 -9 16 -9 6 0 8
4 5 9 -4 5 9 6 28 1 22 -5 39 -3 45 3 8 8 11 7 11 -2 0 -11 3 -11 16 0 9 7 18
9 22 3 8 -10 52 -14 52 -4 0 8 32 6 46 -3 6 -3 14 -4 18 0 9 9 66 9 66 0 0 -4
9 -3 20 3 15 8 20 8 20 -2 0 -9 3 -9 10 2 8 13 10 13 10 0 0 -11 3 -11 12 -2
14 14 32 16 23 2 -4 -7 3 -7 19 0 18 7 26 6 26 -1 0 -8 5 -7 15 1 12 10 15 10
15 0 0 -10 3 -10 15 0 11 9 15 9 15 1 0 -9 5 -9 20 -1 15 8 20 8 20 -2 0 -9 3
-9 10 2 8 13 10 13 10 0 0 -11 3 -11 12 -2 14 14 32 16 23 3 -3 -6 6 -6 25 -1
20 6 30 5 30 -2 0 -6 6 -6 15 2 12 10 15 10 15 -1 0 -9 3 -10 8 -4 9 13 42 16
42 4 0 -5 11 -4 25 1 16 6 26 6 31 -1 4 -6 11 -6 20 2 11 9 14 8 14 -2 0 -11
2 -11 10 1 8 12 10 12 10 1 0 -11 3 -11 15 -1 8 6 19 9 24 6 6 -4 8 5 5 21 -3
16 -7 53 -9 83 -1 30 -5 62 -8 70 -10 27 -20 75 -19 83 1 4 -3 18 -10 30 -7
12 -13 28 -14 36 -2 8 -9 18 -16 22 -7 5 -9 9 -4 9 5 0 3 7 -4 15 -7 8 -9 15
-4 15 4 0 3 5 -4 12 -7 7 -12 20 -12 30 0 10 -4 18 -10 18 -5 0 -10 7 -10 15
0 8 -4 15 -9 15 -5 0 -11 10 -15 23 -3 12 -23 46 -45 74 -40 53 -43 66 -26 93
11 17 18 28 63 104 17 31 32 60 32 66 0 5 4 10 9 10 9 0 35 54 31 66 -1 4 4
10 11 14 11 8 36 47 88 143 12 21 18 43 15 49 -4 7 -2 8 4 4 9 -5 11 9 8 51
-2 31 -9 59 -15 61 -6 2 -11 10 -11 18 0 8 -3 14 -8 14 -4 0 -20 11 -35 25
-16 15 -27 20 -27 13 0 -8 -3 -9 -8 -3 -7 11 -92 16 -92 6 0 -3 -13 -12 -30
-19 -16 -7 -32 -22 -35 -33 -4 -11 -11 -17 -16 -14 -5 4 -9 -3 -9 -14 0 -12
-5 -21 -11 -21 -5 0 -8 -4 -5 -9 4 -5 3 -11 -1 -13 -7 -3 -54 -84 -78 -135 -5
-13 -13 -23 -17 -23 -5 0 -8 -7 -8 -15 0 -8 -5 -15 -11 -15 -5 0 -7 -4 -4 -10
3 -5 1 -10 -4 -10 -6 0 -11 -9 -11 -20 0 -11 -5 -20 -11 -20 -5 0 -7 -4 -4
-10 3 -5 1 -10 -6 -10 -7 0 -10 -3 -7 -6 3 -3 -5 -16 -17 -30 -26 -28 -28 -27
-110 26 -54 35 -125 71 -125 63 0 -5 -4 -2 -9 5 -4 7 -15 14 -23 16 -9 1 -22
7 -29 13 -8 6 -16 11 -19 12 -3 0 -14 3 -25 6 -11 4 -31 11 -45 15 -14 4 -34
11 -45 16 -26 9 -45 15 -70 19 -11 2 -22 4 -25 5 -3 1 -8 2 -12 1 -5 0 -8 4
-8 9 0 6 -5 10 -11 10 -5 0 -7 -5 -3 -12 4 -7 3 -8 -4 -4 -20 12 -54 18 -137
22 -44 2 -90 6 -102 8 -13 2 -23 0 -23 -3 0 -3 -59 -5 -130 -5 -72 1 -133 -2
-136 -7 -3 -5 -14 -4 -26 2 -13 7 -18 7 -14 1 4 -6 -1 -10 -11 -10 -23 1 -61
-7 -95 -21 -16 -6 -28 -9 -28 -6 0 2 -16 -3 -35 -11 -19 -8 -35 -12 -35 -9 0
3 -11 -2 -25 -11 -14 -9 -25 -12 -25 -8 0 5 -6 2 -13 -6 -7 -8 -21 -17 -32
-18 -27 -5 -179 -82 -183 -93 -2 -5 -9 -9 -15 -9 -6 0 -18 -7 -27 -15 -30 -28
-60 -27 -70 1 -6 14 -20 40 -33 57 -13 18 -32 49 -42 70 -11 20 -23 37 -28 37
-4 0 -5 5 -2 10 3 6 1 10 -4 10 -6 0 -11 7 -11 15 0 16 -39 77 -52 83 -5 2 -8
10 -8 19 0 14 -31 64 -55 89 -40 42 -114 51 -172 22z m735 -651 c8 -6 12 -6
12 2 0 24 82 -41 106 -84 13 -25 10 -108 -5 -113 -6 -2 -11 -10 -11 -18 0 -15
-51 -56 -78 -61 -48 -10 -63 -9 -103 4 -39 14 -81 43 -62 43 4 0 1 5 -7 10
-10 6 -15 29 -16 76 -1 65 0 67 39 105 46 44 96 59 125 36z m1162 -9 c17 -7
30 -15 30 -19 0 -3 9 -15 20 -27 12 -12 18 -22 15 -22 -3 0 -3 -6 2 -12 10
-16 13 -88 4 -88 -4 0 -7 -10 -8 -22 -2 -23 -51 -71 -64 -62 -4 2 -9 0 -11 -6
-3 -10 -42 -14 -99 -11 -30 1 -98 62 -101 90 -2 31 -4 36 -11 48 -4 6 -3 14 3
18 6 4 8 10 5 15 -3 5 0 19 7 32 44 76 127 102 208 66z"/>
<path d="M4630 4540 c0 -5 -10 -8 -22 -6 -33 5 -97 -20 -140 -54 -20 -17 -42
-30 -47 -30 -6 0 -11 -6 -11 -13 0 -7 -12 -29 -26 -50 -14 -21 -26 -47 -27
-57 -1 -11 -5 -20 -10 -20 -5 0 -7 -7 -3 -15 3 -8 1 -15 -4 -15 -6 0 -10 -7
-10 -16 0 -9 -6 -30 -14 -47 -8 -18 -22 -54 -32 -82 -9 -27 -21 -54 -25 -59
-4 -5 -5 -15 -2 -24 4 -10 2 -13 -5 -8 -8 5 -12 0 -12 -13 0 -12 -9 -38 -20
-58 -10 -20 -17 -40 -14 -45 3 -4 1 -8 -4 -8 -5 0 -9 -6 -9 -14 0 -14 -34
-108 -62 -166 -9 -19 -16 -39 -17 -45 -1 -5 -3 -13 -4 -17 -1 -5 -3 -11 -4
-15 -1 -5 -13 -33 -27 -63 -15 -30 -34 -82 -44 -115 -9 -33 -24 -69 -31 -80
-8 -12 -11 -25 -7 -28 3 -4 0 -7 -7 -7 -7 0 -10 -3 -7 -6 3 -4 0 -16 -8 -26
-7 -11 -11 -26 -9 -33 3 -7 0 -16 -5 -20 -6 -3 -9 -11 -6 -16 4 -5 2 -9 -2 -9
-8 0 -25 -47 -39 -110 -6 -23 -7 -59 -3 -107 3 -55 95 -193 128 -193 6 0 11
-5 11 -11 0 -5 5 -7 10 -4 6 3 10 1 10 -6 0 -7 3 -10 6 -6 3 3 23 -1 45 -8 21
-8 39 -12 39 -8 0 3 6 0 14 -6 10 -8 16 -9 21 -1 3 5 17 8 30 6 12 -2 35 2 50
10 16 8 30 12 33 10 12 -13 117 83 128 117 3 9 10 15 15 12 5 -4 9 4 9 17 0
13 7 36 15 52 9 16 16 39 17 52 1 12 5 21 9 18 9 -5 29 52 22 60 -4 3 -1 6 5
6 7 0 12 6 12 14 0 8 5 27 11 43 6 15 10 29 10 31 -1 1 5 15 13 31 9 16 12 31
9 35 -4 3 -1 6 6 6 6 0 11 6 10 13 -2 12 6 35 41 112 12 25 18 50 15 55 -3 4
2 15 10 24 9 8 16 19 17 23 0 4 5 19 11 33 6 14 11 32 11 41 1 9 6 22 12 30 5
8 10 21 9 29 0 8 2 17 5 20 10 9 43 90 43 105 0 8 4 15 9 15 4 0 8 9 8 20 0
11 4 20 10 20 5 0 7 7 4 15 -4 8 -1 15 7 15 7 0 10 3 6 6 -3 4 3 24 14 46 13
25 15 37 7 32 -10 -6 -11 -5 -1 7 11 14 72 161 78 189 2 8 4 15 5 15 1 0 3 8
5 18 2 9 -2 17 -8 17 -9 0 -9 2 0 8 12 8 11 54 -1 84 -4 9 -5 22 -1 28 3 5 2
10 -4 10 -6 0 -13 11 -17 25 -3 14 -10 25 -15 25 -5 0 -9 5 -9 10 0 22 -102
105 -114 93 -3 -3 -6 -1 -6 5 0 9 -41 22 -75 24 -5 0 -18 4 -27 9 -12 6 -18 6
-18 -1z"/>
<path d="M1214 3475 c-6 -5 -9 -36 -9 -67 1 -34 -3 -58 -10 -58 -6 0 -7 -3 0
-8 6 -4 10 -14 10 -22 0 -8 -4 -18 -10 -22 -6 -5 -6 -8 1 -8 13 0 13 -62 -1
-72 -7 -5 -6 -8 0 -8 6 0 11 -22 11 -50 0 -28 -5 -50 -11 -50 -6 0 -7 -3 0 -8
6 -4 10 -14 10 -22 0 -8 -4 -18 -10 -22 -6 -5 -6 -8 1 -8 12 0 13 -38 1 -56
-3 -6 -3 -14 1 -18 10 -10 10 -86 0 -92 -4 -3 -5 -11 -1 -17 11 -19 11 -47 -1
-47 -7 0 -8 -3 -1 -8 14 -9 14 -65 0 -74 -7 -5 -7 -8 1 -8 13 0 13 -93 -1
-102 -6 -5 -5 -8 3 -8 9 0 10 -5 2 -19 -5 -11 -6 -22 -2 -25 10 -6 10 -46 -1
-62 -3 -6 -3 -14 1 -18 11 -12 9 -76 -2 -76 -8 0 -8 -3 -1 -8 14 -9 14 -65 0
-74 -7 -5 -7 -8 0 -8 14 0 14 -70 0 -70 -7 0 -7 -3 0 -8 14 -9 14 -65 0 -74
-7 -5 -7 -8 0 -8 14 0 14 -70 0 -70 -7 0 -7 -3 0 -8 6 -4 11 -20 11 -37 0 -16
-5 -33 -11 -37 -7 -5 -7 -8 0 -8 6 0 11 -16 11 -35 0 -19 -5 -35 -11 -35 -7 0
-7 -3 0 -8 14 -9 14 -65 0 -74 -7 -5 -7 -8 0 -8 14 0 14 -70 0 -70 -6 0 -7 -3
0 -8 14 -10 14 -72 1 -72 -8 0 -8 -3 -1 -8 6 -4 11 -20 11 -37 0 -16 -5 -33
-11 -37 -7 -5 -7 -8 0 -8 6 0 11 -21 11 -47 2 -71 21 -153 36 -153 5 0 6 -5 3
-10 -3 -5 -2 -10 4 -10 5 0 12 -8 16 -19 5 -16 24 -37 86 -94 10 -9 19 -15 19
-12 0 3 15 -4 33 -15 17 -11 40 -20 50 -20 9 0 17 -4 17 -9 0 -6 9 -8 20 -6
11 2 22 0 25 -5 3 -4 14 -6 26 -3 31 8 36 -9 34 -108 -1 -50 2 -92 7 -95 5 -3
5 -11 1 -17 -12 -19 -12 -141 1 -156 8 -11 8 -13 0 -8 -9 5 -11 -17 -10 -81 1
-48 5 -92 9 -98 3 -6 3 -14 -1 -18 -10 -11 -11 -216 -1 -216 5 0 8 -3 8 -7 -4
-25 3 -54 16 -67 8 -8 15 -20 15 -26 0 -6 7 -13 15 -16 8 -3 17 -14 20 -25 4
-10 13 -19 21 -19 8 0 14 -4 14 -10 0 -5 7 -10 16 -10 8 0 13 -4 10 -8 -7 -11
112 -45 140 -39 13 2 24 0 24 -5 0 -5 6 -6 13 -1 6 4 17 8 22 10 69 15 105 30
105 44 0 7 3 9 7 6 3 -4 13 2 20 13 8 11 18 18 23 15 5 -3 12 5 16 17 4 13 9
25 13 28 14 12 42 71 37 79 -4 5 -1 11 5 13 6 2 11 42 13 99 1 52 6 101 11
109 5 8 4 11 -2 7 -14 -9 -13 66 1 75 8 5 8 8 0 8 -12 0 -14 176 -3 195 4 6 4
19 2 30 -10 44 -9 210 1 217 8 6 8 8 0 8 -9 0 -10 13 -5 51 1 3 39 6 86 5 47
-1 85 3 85 8 0 5 7 3 15 -4 11 -9 15 -9 15 -1 0 7 5 9 11 5 14 -8 134 -8 148
1 6 3 11 3 11 -2 0 -4 23 -8 50 -8 28 0 50 5 50 10 0 7 3 7 8 0 4 -5 14 -10
22 -10 8 0 18 5 22 10 5 7 8 6 8 0 0 -7 15 -9 35 -7 21 3 35 0 35 -7 0 -6 6
-11 13 -11 7 0 14 -10 14 -22 1 -13 7 -24 13 -26 5 -2 10 -10 10 -18 0 -8 5
-14 10 -14 6 0 10 -7 10 -15 0 -8 5 -15 11 -15 5 0 8 -4 5 -9 -3 -5 11 -33 31
-62 20 -30 36 -54 34 -54 -1 0 2 -12 8 -27 6 -16 16 -28 22 -28 6 0 9 -7 5
-15 -3 -8 -1 -15 3 -15 5 0 14 -13 20 -30 5 -16 15 -30 21 -30 6 0 8 -4 5 -10
-3 -5 -2 -10 2 -10 5 0 14 -15 21 -33 7 -18 21 -43 32 -55 12 -12 18 -22 14
-22 -4 0 1 -10 12 -22 13 -14 14 -19 4 -14 -9 4 -8 2 3 -7 9 -8 17 -19 17 -26
0 -6 5 -11 12 -11 6 0 8 -3 5 -6 -4 -4 2 -19 13 -34 11 -16 20 -33 20 -38 0
-6 3 -12 8 -14 4 -1 22 -31 40 -66 38 -71 90 -127 142 -149 66 -29 150 -36
204 -17 22 7 43 11 48 8 4 -3 8 0 8 5 0 6 7 11 15 11 8 0 15 4 15 9 0 5 9 13
21 16 11 4 18 9 15 12 -6 6 32 43 44 43 4 0 7 6 7 13 1 6 10 35 20 62 23 61
23 148 -1 193 -9 17 -14 32 -11 32 4 0 -3 14 -15 30 -12 17 -18 30 -15 30 4 0
0 7 -7 15 -30 33 -38 45 -32 45 3 0 1 7 -6 15 -7 8 -9 15 -6 15 4 0 -2 10 -14
22 -11 12 -30 44 -42 70 -12 26 -26 48 -30 48 -5 0 -6 5 -3 10 3 6 1 10 -4 10
-6 0 -11 6 -11 13 0 7 -16 36 -35 66 -19 29 -35 57 -35 62 0 5 -5 9 -11 9 -5
0 -7 5 -4 10 4 6 1 17 -5 25 -17 20 -6 31 32 33 32 2 70 8 76 12 1 2 5 3 10 5
4 1 20 7 35 13 16 7 30 12 33 12 5 0 36 27 84 74 43 42 90 123 83 144 -3 6 0
12 5 12 6 0 9 8 8 17 -2 10 0 32 4 50 5 19 3 36 -4 44 -8 9 -8 10 0 6 14 -8
13 51 0 72 -6 9 -5 12 1 8 12 -8 12 200 1 219 -4 6 -4 14 -1 18 11 11 9 150
-2 158 -7 5 -6 8 0 8 13 0 12 350 0 370 -5 8 -4 11 1 7 11 -6 12 269 1 279 -4
4 -2 13 4 20 7 8 7 14 -1 19 -8 5 -7 11 2 23 11 13 11 14 0 8 -12 -7 -12 -4
-2 15 10 18 10 24 1 27 -9 3 -9 7 -1 17 8 10 8 20 0 36 -7 12 -8 19 -2 15 11
-7 10 533 -2 552 -4 7 -12 10 -17 7 -5 -4 -9 -2 -9 2 0 5 -47 8 -105 8 -63 0
-105 -4 -105 -10 0 -6 -3 -6 -8 0 -10 14 -232 14 -232 0 0 -7 -3 -7 -8 0 -10
14 -944 14 -954 0 -5 -6 -8 -6 -8 0 0 14 -942 14 -952 0 -5 -7 -8 -7 -8 0 0 6
-37 10 -94 10 -51 0 -97 -4 -102 -10z"/>
<path d="M790 3359 c0 -6 -6 -9 -12 -6 -17 6 -121 -40 -131 -59 -4 -7 -15 -14
-22 -14 -8 0 -15 -6 -15 -13 0 -7 -8 -22 -19 -33 -10 -11 -24 -38 -31 -60 -7
-21 -19 -52 -27 -68 -8 -15 -17 -40 -19 -53 -3 -14 -12 -36 -21 -49 -8 -13
-12 -24 -8 -24 4 0 2 -7 -5 -15 -7 -9 -14 -25 -15 -38 -4 -37 -5 -38 -14 -32
-6 3 -8 -4 -6 -15 2 -11 0 -20 -5 -20 -5 0 -12 -15 -15 -32 -4 -18 -18 -57
-31 -85 -12 -29 -20 -53 -17 -53 3 0 0 -7 -7 -15 -7 -8 -9 -15 -4 -15 5 0 4
-4 -2 -8 -14 -10 -90 -218 -86 -234 1 -5 -2 -8 -6 -8 -9 0 -37 -70 -34 -82 1
-5 -2 -8 -8 -8 -5 0 -7 -6 -4 -14 3 -8 1 -17 -5 -21 -6 -3 -11 -15 -11 -26 0
-10 -5 -19 -11 -19 -5 0 -8 -4 -4 -9 3 -5 1 -12 -4 -15 -4 -3 -12 -20 -16 -38
-7 -31 -9 -37 -15 -55 -1 -5 -2 -11 -1 -15 0 -5 -4 -8 -9 -8 -6 0 -10 -11 -10
-25 0 -14 -4 -25 -9 -25 -5 0 -12 -17 -16 -37 -4 -21 -7 -38 -6 -38 0 0 -4
-17 -8 -37 -5 -20 -6 -40 -3 -43 3 -3 7 -11 8 -18 1 -7 3 -23 5 -37 2 -14 7
-27 11 -30 3 -3 8 -12 10 -19 2 -8 11 -25 22 -37 10 -12 16 -25 15 -27 -6 -8
84 -66 93 -61 4 3 8 1 8 -4 0 -18 158 -38 185 -23 6 3 13 6 18 7 4 1 9 3 12 4
3 1 8 3 13 4 20 3 103 63 108 79 3 9 14 22 25 28 11 5 17 14 14 19 -3 5 -1 11
5 15 5 3 10 12 10 19 0 8 8 31 17 52 9 22 17 41 18 44 1 3 5 14 9 25 14 37 19
50 22 60 1 6 19 50 39 99 21 49 38 95 39 102 1 7 5 17 9 20 4 4 7 16 7 26 0
10 5 18 11 18 5 0 8 4 4 9 -3 5 -1 12 4 16 5 3 8 14 6 25 -2 11 0 20 6 20 5 0
9 4 9 9 0 5 10 30 22 57 12 27 21 53 20 58 -2 4 2 14 8 20 5 7 7 16 3 19 -3 4
-1 7 6 7 7 0 9 5 6 10 -3 6 -1 10 5 10 6 0 8 5 5 10 -3 6 -2 10 2 10 5 0 9 8
10 18 1 9 12 44 24 77 13 33 22 63 21 68 -1 4 2 7 7 7 8 0 22 37 19 50 -1 3 5
16 12 30 8 14 15 30 15 35 1 6 7 24 15 40 16 36 21 54 23 78 1 9 4 17 8 17 4
0 10 17 14 37 4 21 12 41 18 45 9 6 9 8 0 8 -9 0 -10 7 -3 25 5 14 6 25 2 25
-4 0 -9 12 -10 26 -1 14 -5 31 -9 37 -4 7 -9 21 -10 31 -2 11 -8 25 -13 31 -5
7 -7 15 -3 18 3 4 1 7 -5 7 -7 0 -25 14 -40 30 -16 17 -34 30 -41 30 -6 0 -11
5 -11 10 0 6 -7 10 -15 10 -8 0 -15 4 -15 8 0 5 -6 9 -12 10 -38 3 -106 12
-125 16 -13 3 -23 0 -23 -5z"/>
</g>
</svg>
