<?xml version="1.0" encoding="UTF-8"?>
<!DOCTYPE svg PUBLIC "-//W3C//DTD SVG 1.1//EN" "http://www.w3.org/Graphics/SVG/1.1/DTD/svg11.dtd">
<svg xmlns="http://www.w3.org/2000/svg" version="1.1" width="546px" height="160px" style="shape-rendering:geometricPrecision; text-rendering:geometricPrecision; image-rendering:optimizeQuality; fill-rule:evenodd; clip-rule:evenodd" xmlns:xlink="http://www.w3.org/1999/xlink">
<g><path style="opacity:0.789" fill="#00b583" d="M 545.5,60.5 C 545.5,73.1667 545.5,85.8333 545.5,98.5C 530.382,139.241 501.048,157.408 457.5,153C 424.806,144.973 404.973,124.473 398,91.5C 394.602,57.7988 407.102,31.9655 435.5,14C 471.277,-2.5833 502.777,3.25003 530,31.5C 536.767,40.3701 541.934,50.0368 545.5,60.5 Z M 461.5,13.5 C 496.695,10.6681 521.195,25.3347 535,57.5C 544.065,90.1764 534.899,116.343 507.5,136C 476.511,151.946 448.345,148.113 423,124.5C 401.824,97.0794 400.49,68.7461 419,39.5C 430.171,25.8357 444.338,17.169 461.5,13.5 Z M 431.5,53.5 C 441.172,53.3335 450.839,53.5002 460.5,54C 464.278,56.112 467.778,58.612 471,61.5C 471.833,75.8449 471.666,90.1783 470.5,104.5C 467.963,102.733 465.297,101.233 462.5,100C 452.172,99.5002 441.839,99.3335 431.5,99.5C 431.5,84.1667 431.5,68.8333 431.5,53.5 Z"/></g>
<g><path style="opacity:1" fill="#00b581" d="M 407.5,55.5 C 406.791,54.596 405.791,54.2627 404.5,54.5C 409.169,39.9965 417.835,28.4965 430.5,20C 432.833,19.3333 435.167,19.3333 437.5,20C 424.059,28.9395 414.059,40.7728 407.5,55.5 Z"/></g>
<g><path style="opacity:1" fill="#00b581" d="M 540.5,55.5 C 538.804,53.871 537.804,54.2043 537.5,56.5C 531.385,40.8747 521.052,28.708 506.5,20C 509.634,19.2099 512.634,19.5432 515.5,21C 527.536,29.8617 535.869,41.3617 540.5,55.5 Z"/></g>
<g><path style="opacity:0.865" fill="#00b682" d="M 358.5,30.5 C 369.358,29.7123 372.358,34.2123 367.5,44C 355.906,45.3199 352.906,40.8199 358.5,30.5 Z"/></g>
<g><path style="opacity:0.918" fill="#00b682" d="M 90.5,37.5 C 91.5,37.5 92.5,37.5 93.5,37.5C 93.7961,53.5341 94.6294,69.5341 96,85.5C 96.5743,87.492 97.741,88.992 99.5,90C 128.438,91.6421 157.438,91.9754 186.5,91C 192.225,89.4063 194.892,85.5729 194.5,79.5C 197.579,79.7399 200.579,79.4066 203.5,78.5C 204.287,81.8482 205.121,85.1815 206,88.5C 207.648,89.717 209.481,90.5503 211.5,91C 221.219,91.8589 230.885,91.5255 240.5,90C 241.167,89.3333 241.833,88.6667 242.5,88C 236.909,80.0804 229.742,73.9138 221,69.5C 220.449,64.4555 220.782,59.4555 222,54.5C 230.336,48.4154 239.503,44.0821 249.5,41.5C 249.5,40.5 249.5,39.5 249.5,38.5C 253.548,38.6054 257.548,38.2721 261.5,37.5C 262.14,51.8498 263.14,66.1832 264.5,80.5C 267.833,78.8333 271.167,77.1667 274.5,75.5C 277.156,78.8012 279.322,82.4678 281,86.5C 282.637,88.8102 284.804,90.3102 287.5,91C 315.19,91.9083 342.857,91.575 370.5,90C 362.599,90.1589 355.766,87.6589 350,82.5C 345.354,72.5748 347.188,64.0748 355.5,57C 371.464,51.5835 380.298,57.4168 382,74.5C 382.559,82.2576 381.893,89.9243 380,97.5C 379.215,99.286 378.049,100.786 376.5,102C 365.864,105.826 354.864,107.493 343.5,107C 323.809,107.784 304.142,107.618 284.5,106.5C 281.46,123.382 271.46,130.882 254.5,129C 251.888,128.361 249.554,127.194 247.5,125.5C 246.205,121.62 246.205,117.786 247.5,114C 253.009,115.373 258.675,115.707 264.5,115C 269.796,112.871 273.129,109.038 274.5,103.5C 271.527,96.2212 268.027,89.2212 264,82.5C 264.165,90.4793 264.331,98.4793 264.5,106.5C 260.5,106.5 256.5,106.5 252.5,106.5C 252.817,103.428 252.484,100.428 251.5,97.5C 248.781,100.706 245.447,103.206 241.5,105C 228.806,108.081 216.14,108.081 203.5,105C 201.622,103.457 200.122,101.624 199,99.5C 195.405,104.215 190.572,106.715 184.5,107C 157.167,107.667 129.833,107.667 102.5,107C 94.2068,107.442 88.3734,103.942 85,96.5C 84.1628,98.3506 83.3295,100.184 82.5,102C 66.3203,107.93 49.6536,109.93 32.5,108C 17.4078,106.081 10.0744,97.5808 10.5,82.5C 10.4481,78.4128 10.9481,74.4128 12,70.5C 14.8007,69.2054 17.6341,69.2054 20.5,70.5C 19.3519,77.8939 21.3519,84.3939 26.5,90C 32.4127,92.6382 38.5794,94.1382 45,94.5C 54.1292,94.0748 63.1292,92.7415 72,90.5C 72.6667,88.5 72.6667,86.5 72,84.5C 69.8664,79.2409 68.0331,73.9076 66.5,68.5C 70.2617,68.3476 73.9284,67.681 77.5,66.5C 79.8426,68.9954 81.3426,71.9954 82,75.5C 81.9066,63.1773 81.7399,50.8439 81.5,38.5C 84.7131,38.81 87.7131,38.4767 90.5,37.5 Z M 249.5,54.5 C 250.536,62.6752 251.036,71.0086 251,79.5C 246.5,72.3333 240.667,66.5 233.5,62C 238.773,59.1948 244.106,56.6948 249.5,54.5 Z M 360.5,67.5 C 366.969,66.9678 370.303,69.9678 370.5,76.5C 367.059,76.6989 363.726,76.1989 360.5,75C 357.914,72.506 357.914,70.006 360.5,67.5 Z"/></g>
<g><path style="opacity:0.77" fill="#00b583" d="M 489.5,55.5 C 492.518,55.3354 495.518,55.502 498.5,56C 500.329,56.2735 501.829,57.1068 503,58.5C 505.285,54.5341 507.618,54.5341 510,58.5C 512.667,54.5 515.333,54.5 518,58.5C 518.656,62.0208 517.156,64.0208 513.5,64.5C 511.971,64.4712 510.804,63.8045 510,62.5C 507.667,65.1667 505.333,65.1667 503,62.5C 502.25,63.1258 501.416,63.6258 500.5,64C 495.833,64.6667 491.167,64.6667 486.5,64C 485.283,62.3523 484.45,60.519 484,58.5C 483.311,59.3567 482.478,60.0233 481.5,60.5C 480.167,75.1667 480.167,89.8333 481.5,104.5C 484.037,102.733 486.703,101.233 489.5,100C 495.5,99.3333 501.5,99.3333 507.5,100C 512.159,102.271 512.493,104.938 508.5,108C 502.167,108.333 495.833,108.667 489.5,109C 485.256,112.244 480.756,115.078 476,117.5C 471.177,114.683 466.343,111.849 461.5,109C 449.167,108.667 436.833,108.333 424.5,108C 424,107.5 423.5,107 423,106.5C 422.333,86.8333 422.333,67.1667 423,47.5C 423.833,46.6667 424.667,45.8333 425.5,45C 437.5,44.3333 449.5,44.3333 461.5,45C 466.343,47.8494 471.177,50.6828 476,53.5C 480.568,50.798 485.068,47.9647 489.5,45C 499.167,44.3333 508.833,44.3333 518.5,45C 522.065,47.1775 522.399,49.8442 519.5,53C 510.167,53.3333 500.833,53.6667 491.5,54C 490.584,54.2784 489.918,54.7784 489.5,55.5 Z M 431.5,53.5 C 431.5,68.8333 431.5,84.1667 431.5,99.5C 441.839,99.3335 452.172,99.5002 462.5,100C 465.297,101.233 467.963,102.733 470.5,104.5C 471.666,90.1783 471.833,75.8449 471,61.5C 467.778,58.612 464.278,56.112 460.5,54C 450.839,53.5002 441.172,53.3335 431.5,53.5 Z"/></g>
<g><path style="opacity:0.856" fill="#00b682" d="M 189.5,51.5 C 197.098,51.3341 199.931,55.0008 198,62.5C 197.5,63.6667 196.667,64.5 195.5,65C 186.491,66.9869 183.324,63.4869 186,54.5C 187.145,53.3636 188.312,52.3636 189.5,51.5 Z"/></g>
<g><path style="opacity:0.855" fill="#00b682" d="M 204.5,51.5 C 212.877,51.394 215.71,55.394 213,63.5C 209.201,66.1327 205.367,66.1327 201.5,63.5C 199.567,58.6072 200.567,54.6072 204.5,51.5 Z"/></g>
<g><path style="opacity:1" fill="#00b57f" d="M 429.5,100.5 C 428.549,99.0813 428.216,97.4147 428.5,95.5C 428.5,91.8333 428.5,88.1667 428.5,84.5C 428.827,79.456 428.494,74.456 427.5,69.5C 426.828,70.9492 426.161,72.2825 425.5,73.5C 425.5,66.1667 425.5,58.8333 425.5,51.5C 430.145,50.6693 431.145,51.8359 428.5,55C 429.491,70.0886 429.824,85.2552 429.5,100.5 Z"/></g>
<g><path style="opacity:1" fill="#00b580" d="M 478.5,107.5 C 477.517,103.702 477.183,99.7016 477.5,95.5C 477.5,91.8333 477.5,88.1667 477.5,84.5C 477.5,79.5 477.5,74.5 477.5,69.5C 476.5,69.5 475.5,69.5 474.5,69.5C 474.5,74.5 474.5,79.5 474.5,84.5C 474.167,84.5 473.833,84.5 473.5,84.5C 473.666,76.4931 473.5,68.4931 473,60.5C 469.662,57.9917 466.495,55.325 463.5,52.5C 464.723,51.3861 466.056,51.2195 467.5,52C 470.353,53.5336 473.186,55.0336 476,56.5C 479.862,52.9904 484.362,51.4904 489.5,52C 486.264,54.8681 482.764,57.3681 479,59.5C 478.5,75.4965 478.333,91.4965 478.5,107.5 Z"/></g>
<g><path style="opacity:1" fill="#00b57a" d="M 404.5,54.5 C 405.791,54.2627 406.791,54.596 407.5,55.5C 403.933,65.4083 402.6,75.7416 403.5,86.5C 401.821,86.2852 400.821,86.9519 400.5,88.5C 399.325,76.9239 400.658,65.5906 404.5,54.5 Z"/></g>
<g><path style="opacity:1" fill="#00b57a" d="M 540.5,55.5 C 544.49,67.3582 545.49,79.3582 543.5,91.5C 543.923,89.2188 543.256,87.5521 541.5,86.5C 542.122,76.1883 540.788,66.1883 537.5,56.5C 537.804,54.2043 538.804,53.871 540.5,55.5 Z"/></g>
<g><path style="opacity:0.792" fill="#00b583" d="M 439.5,55.5 C 446.334,56.8158 453.167,56.8158 460,55.5C 464.67,57.3563 465.503,60.1896 462.5,64C 454.167,64.6667 445.833,64.6667 437.5,64C 434.614,60.3741 435.281,57.5407 439.5,55.5 Z"/></g>
<g><path style="opacity:0.779" fill="#00b683" d="M 439.5,66.5 C 446.334,67.8158 453.167,67.8158 460,66.5C 464.67,68.3563 465.503,71.1896 462.5,75C 454.167,75.6667 445.833,75.6667 437.5,75C 434.614,71.3741 435.281,68.5407 439.5,66.5 Z"/></g>
<g><path style="opacity:0.692" fill="#00b583" d="M 488.5,66.5 C 490.229,67.1175 491.729,68.1175 493,69.5C 493.903,68.2986 495.069,67.4652 496.5,67C 500.167,66.3333 503.833,66.3333 507.5,67C 512.325,69.1348 512.659,71.8015 508.5,75C 503.833,75.6667 499.167,75.6667 494.5,75C 494,74.5 493.5,74 493,73.5C 489.119,76.4865 486.285,75.6532 484.5,71C 485.344,68.9933 486.677,67.4933 488.5,66.5 Z"/></g>
<g><path style="opacity:1" fill="#00b579" d="M 428.5,84.5 C 427.022,85.4475 426.022,86.7809 425.5,88.5C 425.5,83.5 425.5,78.5 425.5,73.5C 426.161,72.2825 426.828,70.9492 427.5,69.5C 428.494,74.456 428.827,79.456 428.5,84.5 Z"/></g>
<g><path style="opacity:1" fill="#00b579" d="M 477.5,84.5 C 476.5,84.5 475.5,84.5 474.5,84.5C 474.5,79.5 474.5,74.5 474.5,69.5C 475.5,69.5 476.5,69.5 477.5,69.5C 477.5,74.5 477.5,79.5 477.5,84.5 Z"/></g>
<g><path style="opacity:1" fill="#00b57d" d="M 437.5,69.5 C 445.5,69.5 453.5,69.5 461.5,69.5C 461.5,70.8333 461.5,72.1667 461.5,73.5C 453.826,73.6664 446.159,73.4997 438.5,73C 437.663,71.9887 437.33,70.8221 437.5,69.5 Z"/></g>
<g><path style="opacity:1" fill="#00b57c" d="M 495.5,69.5 C 499.833,69.5 504.167,69.5 508.5,69.5C 508.5,70.5 508.5,71.5 508.5,72.5C 504.167,72.5 499.833,72.5 495.5,72.5C 495.5,71.5 495.5,70.5 495.5,69.5 Z"/></g>
<g><path style="opacity:0.705" fill="#00b583" d="M 438.5,77.5 C 445.841,77.3337 453.174,77.5003 460.5,78C 464.795,79.8451 465.462,82.5118 462.5,86C 454.167,86.6667 445.833,86.6667 437.5,86C 434.815,82.8833 435.148,80.05 438.5,77.5 Z"/></g>
<g><path style="opacity:0.693" fill="#00b583" d="M 488.5,77.5 C 490.229,78.1175 491.729,79.1175 493,80.5C 495.667,76.5 498.333,76.5 501,80.5C 501.903,79.2986 503.069,78.4652 504.5,78C 509.167,77.3333 513.833,77.3333 518.5,78C 522.065,80.1775 522.399,82.8442 519.5,86C 514.167,86.6667 508.833,86.6667 503.5,86C 502.584,85.6258 501.75,85.1258 501,84.5C 498.333,87.1667 495.667,87.1667 493,84.5C 489.119,87.4865 486.285,86.6532 484.5,82C 485.344,79.9933 486.677,78.4933 488.5,77.5 Z"/></g>
<g><path style="opacity:1" fill="#00b578" d="M 438.5,80.5 C 446.167,80.5 453.833,80.5 461.5,80.5C 461.67,81.8221 461.337,82.9887 460.5,84C 453.167,84.6667 445.833,84.6667 438.5,84C 437.316,82.8545 437.316,81.6879 438.5,80.5 Z"/></g>
<g><path style="opacity:1" fill="#00b579" d="M 487.5,80.5 C 488.5,80.5 489.5,80.5 490.5,80.5C 490.5,81.8333 490.5,83.1667 490.5,84.5C 489.5,84.5 488.5,84.5 487.5,84.5C 487.5,83.1667 487.5,81.8333 487.5,80.5 Z"/></g>
<g><path style="opacity:1" fill="#00b578" d="M 495.5,80.5 C 496.5,80.5 497.5,80.5 498.5,80.5C 497.5,85.8333 496.5,85.8333 495.5,80.5 Z"/></g>
<g><path style="opacity:1" fill="#00b578" d="M 503.5,80.5 C 508.511,80.3341 513.511,80.5007 518.5,81C 519.833,82 519.833,83 518.5,84C 513.833,84.6667 509.167,84.6667 504.5,84C 503.663,82.9887 503.33,81.8221 503.5,80.5 Z"/></g>
<g><path style="opacity:1" fill="#00b573" d="M 428.5,84.5 C 428.5,88.1667 428.5,91.8333 428.5,95.5C 426.972,96.8021 425.972,98.4687 425.5,100.5C 425.5,96.5 425.5,92.5 425.5,88.5C 426.022,86.7809 427.022,85.4475 428.5,84.5 Z"/></g>
<g><path style="opacity:1" fill="#00b575" d="M 473.5,84.5 C 473.833,84.5 474.167,84.5 474.5,84.5C 475.5,84.5 476.5,84.5 477.5,84.5C 477.5,88.1667 477.5,91.8333 477.5,95.5C 476.5,95.5 475.5,95.5 474.5,95.5C 474.817,99.7016 474.483,103.702 473.5,107.5C 473.5,99.8333 473.5,92.1667 473.5,84.5 Z"/></g>
<g><path style="opacity:1" fill="#00b575" d="M 403.5,86.5 C 404.901,94.7698 407.234,102.77 410.5,110.5C 409.209,110.263 408.209,110.596 407.5,111.5C 403.544,104.437 401.21,96.77 400.5,88.5C 400.821,86.9519 401.821,86.2852 403.5,86.5 Z"/></g>
<g><path style="opacity:1" fill="#00b575" d="M 541.5,86.5 C 543.256,87.5521 543.923,89.2188 543.5,91.5C 542.539,99.0302 540.206,106.03 536.5,112.5C 536.196,110.204 535.196,109.871 533.5,111.5C 537.003,103.327 539.67,94.9938 541.5,86.5 Z"/></g>
<g><path style="opacity:0.699" fill="#00b583" d="M 439.5,88.5 C 446.508,88.3337 453.508,88.5004 460.5,89C 464.866,90.7624 465.533,93.429 462.5,97C 454.167,97.6667 445.833,97.6667 437.5,97C 434.614,93.3741 435.281,90.5407 439.5,88.5 Z"/></g>
<g><path style="opacity:0.693" fill="#00b683" d="M 488.5,88.5 C 493.37,88.0316 498.036,88.6982 502.5,90.5C 507.997,87.5032 510.497,89.1698 510,95.5C 507.667,98.1667 505.333,98.1667 503,95.5C 502.25,96.1258 501.416,96.6258 500.5,97C 495.833,97.6667 491.167,97.6667 486.5,97C 483.568,93.2998 484.234,90.4665 488.5,88.5 Z"/></g>
<g><path style="opacity:1" fill="#00b575" d="M 438.5,91.5 C 446.167,91.5 453.833,91.5 461.5,91.5C 461.5,92.8333 461.5,94.1667 461.5,95.5C 453.826,95.6664 446.159,95.4997 438.5,95C 437.316,93.8545 437.316,92.6879 438.5,91.5 Z"/></g>
<g><path style="opacity:1" fill="#00b575" d="M 487.5,91.5 C 491.833,91.5 496.167,91.5 500.5,91.5C 500.5,92.8333 500.5,94.1667 500.5,95.5C 496.167,95.5 491.833,95.5 487.5,95.5C 487.5,94.1667 487.5,92.8333 487.5,91.5 Z"/></g>
<g><path style="opacity:1" fill="#00b576" d="M 504.5,91.5 C 505.833,91.5 507.167,91.5 508.5,91.5C 508.778,93.3464 508.111,94.6798 506.5,95.5C 504.889,94.6798 504.222,93.3464 504.5,91.5 Z"/></g>
<g><path style="opacity:1" fill="#00b56f" d="M 428.5,95.5 C 428.216,97.4147 428.549,99.0813 429.5,100.5C 429.918,101.222 430.584,101.722 431.5,102C 442.5,102.333 453.5,102.667 464.5,103C 467.162,105.98 470.162,107.48 473.5,107.5C 474.483,103.702 474.817,99.7016 474.5,95.5C 475.5,95.5 476.5,95.5 477.5,95.5C 477.183,99.7016 477.517,103.702 478.5,107.5C 478.56,108.043 478.893,108.376 479.5,108.5C 482.304,106.862 484.971,105.029 487.5,103C 494.492,102.5 501.492,102.334 508.5,102.5C 508.67,103.822 508.337,104.989 507.5,106C 501.167,106.333 494.833,106.667 488.5,107C 484.557,109.958 480.39,112.458 476,114.5C 471.48,112.154 466.98,109.654 462.5,107C 450.171,106.5 437.838,106.333 425.5,106.5C 425.5,104.5 425.5,102.5 425.5,100.5C 425.972,98.4687 426.972,96.8021 428.5,95.5 Z"/></g>
<g><path style="opacity:1" fill="#00b56f" d="M 410.5,110.5 C 429.458,142.297 457.125,153.797 493.5,145C 511.116,138.726 524.449,127.56 533.5,111.5C 535.196,109.871 536.196,110.204 536.5,112.5C 516.996,145.521 488.329,157.687 450.5,149C 431.032,142.364 416.698,129.864 407.5,111.5C 408.209,110.596 409.209,110.263 410.5,110.5 Z"/></g>
<g><path style="opacity:0.87" fill="#00b682" d="M 45.5,118.5 C 52.3102,116.61 55.9769,119.11 56.5,126C 56.2971,128.406 55.2971,130.406 53.5,132C 44.1462,134.487 40.6462,130.987 43,121.5C 43.6979,120.309 44.5313,119.309 45.5,118.5 Z"/></g>
</svg>
