<svg xmlns="http://www.w3.org/2000/svg" width="123" height="37" viewBox="0 0 123 37" fill="none">
<g clip-path="url(#clip0_1257_341)">
<path d="M122.292 24.2669C121.603 22.6338 120.446 21.2403 118.968 20.2611C117.49 19.2819 115.755 18.7605 113.981 18.7621H96.15C95.62 18.761 95.1121 18.5499 94.7378 18.175C94.3634 17.8001 94.1531 17.2922 94.1531 16.7625V1.45751C94.1534 1.33651 94.1226 1.21747 94.0638 1.11173C94.0049 1.00599 93.9199 0.917086 93.8169 0.853502C93.7139 0.789918 93.5963 0.753762 93.4753 0.748503C93.3544 0.743243 93.234 0.769048 93.1259 0.823451L91.1318 1.8212C90.9545 1.90908 90.8054 2.04466 90.701 2.21269C90.5967 2.38072 90.5414 2.57452 90.5413 2.77226V17.0343C90.5411 17.7349 90.6791 18.4286 90.9473 19.0759C91.2155 19.7232 91.6086 20.3114 92.1044 20.8068C92.6001 21.3022 93.1886 21.6951 93.8364 21.9631C94.4841 22.2311 95.1783 22.369 95.8794 22.3688H113.984C114.694 22.3719 115.397 22.5147 116.052 22.7891C116.707 23.0636 117.301 23.4642 117.801 23.9683C118.301 24.4723 118.697 25.0698 118.966 25.7267C119.235 26.3836 119.372 27.087 119.369 27.7967C119.366 28.5064 119.223 29.2086 118.948 29.8631C118.673 30.5177 118.272 31.1117 117.768 31.6114C117.264 32.1111 116.666 32.5066 116.009 32.7754C115.351 33.0442 114.647 33.1809 113.937 33.1779H90.7624C90.5645 33.178 90.3706 33.2332 90.2025 33.3375C90.0343 33.4418 89.8986 33.5909 89.8107 33.768L88.8136 35.7607C88.7588 35.869 88.7328 35.9895 88.7379 36.1107C88.7431 36.2319 88.7793 36.3497 88.8431 36.4529C88.907 36.556 88.9962 36.6411 89.1024 36.6999C89.2086 36.7587 89.3281 36.7893 89.4495 36.7887H113.984C115.472 36.7876 116.936 36.419 118.247 35.7156C119.558 35.0122 120.674 33.9958 121.497 32.7569C122.32 31.5181 122.823 30.0951 122.962 28.6148C123.102 27.1345 122.872 25.6427 122.295 24.2723L122.292 24.2669Z" fill="#00A2A4"/>
<path d="M94.6348 27.7761C94.6348 27.9089 94.6875 28.0363 94.7815 28.1303C94.8755 28.2242 95.0031 28.277 95.136 28.277H116.834C116.967 28.277 117.095 28.2242 117.189 28.1303C117.283 28.0363 117.336 27.9089 117.336 27.7761C117.336 27.6432 117.283 27.5158 117.189 27.4218C117.095 27.3279 116.967 27.2751 116.834 27.2751H95.136C95.0031 27.2751 94.8755 27.3279 94.7815 27.4218C94.6875 27.5158 94.6348 27.6432 94.6348 27.7761Z" fill="#00A2A4"/>
<path d="M94.428 31.2291H115.474C115.607 31.2291 115.735 31.1763 115.829 31.0824C115.923 30.9884 115.975 30.861 115.975 30.7282C115.975 30.5953 115.923 30.4679 115.829 30.374C115.735 30.28 115.607 30.2272 115.474 30.2272H94.428C94.2951 30.2272 94.1675 30.28 94.0735 30.374C93.9795 30.4679 93.9268 30.5953 93.9268 30.7282C93.9268 30.861 93.9795 30.9884 94.0735 31.0824C94.1675 31.1763 94.2951 31.2291 94.428 31.2291Z" fill="#00A2A4"/>
<path d="M115.474 24.3203H94.428C94.2951 24.3203 94.1675 24.3731 94.0735 24.467C93.9795 24.561 93.9268 24.6884 93.9268 24.8212C93.9268 24.9541 93.9795 25.0815 94.0735 25.1754C94.1675 25.2694 94.2951 25.3222 94.428 25.3222H115.474C115.607 25.3222 115.735 25.2694 115.829 25.1754C115.923 25.0815 115.975 24.9541 115.975 24.8212C115.975 24.6884 115.923 24.561 115.829 24.467C115.735 24.3731 115.607 24.3203 115.474 24.3203Z" fill="#00A2A4"/>
<path d="M7.02276 20.3967H9.82846C11.246 20.3968 12.6111 19.8613 13.65 18.8977C14.6889 17.934 15.3249 16.6134 15.4302 15.2008C15.4344 15.1472 15.4274 15.0933 15.4098 15.0425C15.3922 14.9916 15.3642 14.945 15.3278 14.9055C15.2913 14.8659 15.2471 14.8343 15.1978 14.8127C15.1486 14.791 15.0954 14.7797 15.0416 14.7795H13.0063C12.9112 14.7794 12.8193 14.8141 12.7479 14.877C12.6766 14.94 12.6308 15.0268 12.619 15.1212C12.5365 15.8022 12.2074 16.4294 11.6938 16.8845C11.1802 17.3396 10.5176 17.5911 9.83121 17.5915H7.02276C5.90639 17.5919 4.83555 17.1493 4.04551 16.3611C3.25547 15.5729 2.81088 14.5035 2.80942 13.3878C2.80924 12.8349 2.9181 12.2872 3.12978 11.7763C3.34145 11.2654 3.6518 10.8011 4.04308 10.4101C4.43436 10.0191 4.8989 9.70898 5.41017 9.49745C5.92144 9.28591 6.4694 9.17712 7.02276 9.1773H14.0459C15.1627 9.17839 16.2333 9.62248 17.0225 10.412C17.8118 11.2015 18.2551 12.2719 18.2551 13.3878V13.4139C18.2811 15.2547 19.0299 17.0116 20.3401 18.3057C21.6502 19.5999 23.4169 20.3277 25.2591 20.3322L32.2795 20.3528C33.3705 20.3583 34.4478 20.1091 35.4253 19.6249C36.4029 19.1407 37.2538 18.435 37.9101 17.5641C38.561 18.4379 39.4069 19.148 40.3805 19.6381C41.3541 20.1281 42.4286 20.3846 43.5187 20.3871L49.1356 20.4036C50.058 20.4065 50.9719 20.2277 51.8252 19.8774C52.6784 19.5272 53.4542 19.0123 54.1082 18.3623C54.7622 17.7123 55.2816 16.9399 55.6368 16.0891C55.9919 15.2384 56.1758 14.3261 56.178 13.4043C56.1807 12.4826 56.0017 11.5693 55.6511 10.7168C55.3006 9.8642 54.7854 9.089 54.135 8.43546C53.4845 7.78191 52.7117 7.26284 51.8605 6.90786C51.0093 6.55288 50.0964 6.36895 49.1741 6.36661C48.2517 6.36372 47.3377 6.54253 46.4845 6.89278C45.6313 7.24303 44.8555 7.75786 44.2015 8.40788C43.5475 9.05789 43.028 9.83033 42.6729 10.681C42.3177 11.5318 42.1338 12.4441 42.1317 13.3659V14.3801C42.1313 14.4313 42.1411 14.4821 42.1605 14.5296C42.1798 14.577 42.2084 14.6201 42.2445 14.6565C42.2807 14.6928 42.3236 14.7217 42.371 14.7414C42.4183 14.7611 42.4691 14.7712 42.5203 14.7712H44.5487C44.5999 14.7714 44.6507 14.7615 44.6981 14.7421C44.7455 14.7227 44.7886 14.6941 44.8249 14.658C44.8613 14.622 44.8901 14.5791 44.9099 14.5319C44.9297 14.4847 44.9399 14.434 44.9401 14.3828V13.3686C44.9417 12.8157 45.0523 12.2686 45.2656 11.7585C45.4788 11.2483 45.7906 10.7852 46.183 10.3954C46.5754 10.0057 47.0408 9.69703 47.5526 9.48708C48.0644 9.27713 48.6126 9.17001 49.1658 9.17181C49.7191 9.17343 50.2667 9.28395 50.7773 9.49705C51.2878 9.71015 51.7514 10.0216 52.1415 10.4138C52.5316 10.8059 52.8406 11.271 53.0508 11.7824C53.2611 12.2939 53.3684 12.8418 53.3668 13.3947C53.3624 14.5104 52.9151 15.5788 52.1231 16.3652C51.331 17.1516 50.259 17.5917 49.1425 17.5888L43.5256 17.5723C42.4089 17.569 41.3391 17.1228 40.5514 16.3318C39.7637 15.5407 39.3224 14.4695 39.3246 13.3535V13.3357C39.3235 11.4784 38.5857 9.69737 37.2728 8.38281C35.96 7.06825 34.1792 6.32742 32.3207 6.3227L29.5136 6.31447C28.0967 6.30983 26.7304 6.84064 25.6887 7.80046C24.647 8.76027 24.0069 10.0781 23.8967 11.4898C23.8924 11.5433 23.8992 11.5972 23.9166 11.648C23.9341 11.6988 23.9619 11.7455 23.9982 11.785C24.0346 11.8246 24.0788 11.8562 24.1279 11.8779C24.1771 11.8996 24.2303 11.9109 24.284 11.9111L26.3206 11.918C26.416 11.9181 26.508 11.8834 26.5796 11.8205C26.6511 11.7576 26.6973 11.6707 26.7093 11.5763C26.7945 10.8961 27.126 10.2707 27.6412 9.81808C28.1563 9.36548 28.8195 9.11704 29.5054 9.11967L32.3111 9.1279C33.4272 9.13081 34.4965 9.57631 35.2842 10.3666C36.0719 11.1568 36.5135 12.2272 36.5121 13.3425V13.3549C36.5077 14.4708 36.0601 15.5392 35.2677 16.3254C34.4753 17.1116 33.403 17.5512 32.2864 17.5476L25.2701 17.5201C24.7168 17.5185 24.1693 17.408 23.6588 17.1949C23.1483 16.9818 22.6849 16.6702 22.2949 16.2781C21.9049 15.8859 21.596 15.4209 21.3859 14.9094C21.1759 14.3979 21.0686 13.8501 21.0704 13.2973V13.2684C21.0405 11.4266 20.2869 9.67045 18.9724 8.37913C17.6579 7.0878 15.8878 6.36493 14.0446 6.36661H7.02276C6.10041 6.36661 5.18712 6.54822 4.33501 6.90103C3.48291 7.25385 2.70871 7.77096 2.05664 8.42285C1.40457 9.07474 0.887412 9.84862 0.534695 10.7003C0.181979 11.552 0.000616316 12.4647 0.0009771 13.3865C0.00243341 15.2464 0.742915 17.0297 2.05964 18.3443C3.37636 19.6588 5.16154 20.3971 7.02276 20.3967Z" fill="#00A2A4"/>
<path d="M48.0542 4.7065C49.0838 4.16494 49.4791 2.89185 48.9372 1.86296C48.3953 0.834077 47.1213 0.439015 46.0917 0.980568C45.0622 1.52212 44.6668 2.79521 45.2088 3.8241C45.7507 4.85299 47.0246 5.24805 48.0542 4.7065Z" fill="#00A2A4"/>
<path d="M52.2061 4.75487C53.2531 4.24773 53.6904 2.98843 53.183 1.94216C52.6755 0.895882 51.4153 0.458827 50.3684 0.96597C49.3214 1.47311 48.8841 2.73241 49.3915 3.77868C49.899 4.82496 51.1591 5.26201 52.2061 4.75487Z" fill="#00A2A4"/>
<path d="M65.9784 20.3967H75.8141C76.7365 20.3996 77.6505 20.2208 78.5037 19.8705C79.3569 19.5203 80.1327 19.0055 80.7867 18.3554C81.4407 17.7054 81.9601 16.933 82.3153 16.0823C82.6704 15.2316 82.8543 14.3192 82.8565 13.3974C82.8596 12.4755 82.6808 11.5621 82.3304 10.7093C81.98 9.85647 81.4648 9.08104 80.8144 8.42731C80.1639 7.77359 79.3909 7.25438 78.5395 6.89938C77.6881 6.54438 76.7751 6.36054 75.8526 6.35838L70.222 6.35015C69.2357 6.34508 68.2657 6.60126 67.4108 7.09263V1.13089C67.411 1.0793 67.4009 1.02817 67.3813 0.980471C67.3616 0.932768 67.3327 0.889423 67.2962 0.852939C67.2597 0.816455 67.2163 0.787558 67.1685 0.767897C67.1208 0.748236 67.0696 0.738209 67.018 0.73839H64.9937C64.8895 0.73839 64.7897 0.779748 64.716 0.853358C64.6424 0.926967 64.6009 1.02679 64.6009 1.13089V14.2936C64.6007 14.3452 64.6108 14.3963 64.6305 14.444C64.6502 14.4917 64.6791 14.5351 64.7156 14.5716C64.7521 14.6081 64.7955 14.637 64.8433 14.6566C64.891 14.6763 64.9421 14.6863 64.9937 14.6861H67.0166C67.1208 14.6861 67.2207 14.6448 67.2943 14.5712C67.368 14.4975 67.4094 14.3977 67.4094 14.2936V11.9605C67.4105 11.592 67.4842 11.2272 67.6264 10.8871C67.7685 10.547 67.9763 10.2383 68.2378 9.97841C68.4994 9.71856 68.8096 9.51273 69.1507 9.37268C69.4919 9.23264 69.8572 9.16112 70.2261 9.1622L75.8484 9.17043C76.4018 9.17187 76.9495 9.28226 77.4601 9.49529C77.9708 9.70833 78.4344 10.0198 78.8246 10.412C79.2147 10.8042 79.5237 11.2693 79.7338 11.7809C79.944 12.2924 80.0512 12.8403 80.0494 13.3933C80.048 13.9463 79.9376 14.4936 79.7244 15.0039C79.5112 15.5142 79.1995 15.9775 78.807 16.3674C78.4146 16.7573 77.9491 17.0661 77.4372 17.2761C76.9254 17.4861 76.3771 17.5933 75.8238 17.5915H65.988C65.4347 17.5899 64.8871 17.4794 64.3765 17.2663C63.866 17.0532 63.4025 16.7417 63.0124 16.3495C62.6223 15.9574 62.3132 15.4923 62.103 14.9809C61.8927 14.4694 61.7854 13.9216 61.7871 13.3686V1.13089C61.7871 1.02703 61.7458 0.927409 61.6725 0.853839C61.5991 0.780269 61.4996 0.738754 61.3956 0.73839H59.3714C59.3197 0.738209 59.2685 0.748236 59.2208 0.767897C59.1731 0.787558 59.1297 0.816455 59.0932 0.852939C59.0567 0.889423 59.0278 0.932768 59.0082 0.980471C58.9885 1.02817 58.9784 1.0793 58.9786 1.13089V13.3535C58.975 14.2754 59.1532 15.189 59.5031 16.042C59.853 16.895 60.3678 17.6708 61.0178 18.3249C61.6679 18.979 62.4406 19.4986 63.2918 19.8541C64.143 20.2096 65.0559 20.394 65.9784 20.3967Z" fill="#00A2A4"/>
<path d="M73.3506 31.8837H72.7189C72.6716 31.8841 72.6264 31.903 72.593 31.9363C72.5596 31.9697 72.5407 32.0149 72.5403 32.0621V32.9542C72.5403 33.1908 72.4463 33.4177 72.2789 33.585C72.1115 33.7523 71.8845 33.8463 71.6477 33.8463H71.4677C71.231 33.8463 71.004 33.7523 70.8366 33.585C70.6692 33.4177 70.5751 33.1908 70.5751 32.9542V32.0978C70.5752 32.0801 70.5699 32.0629 70.5601 32.0482C70.5503 32.0335 70.5364 32.0221 70.5201 32.0153C70.5037 32.0085 70.4858 32.0068 70.4684 32.0102C70.4511 32.0137 70.4352 32.0222 70.4227 32.0347L69.6577 32.7991C69.6372 32.8191 69.6209 32.843 69.6099 32.8694C69.5988 32.8958 69.5931 32.9242 69.5932 32.9528C69.5932 33.1894 69.4991 33.4163 69.3317 33.5836C69.1643 33.7509 68.9373 33.8449 68.7006 33.8449H65.3716C65.135 33.8445 64.9081 33.7504 64.7408 33.5832C64.5735 33.416 64.4793 33.1893 64.4789 32.9528V32.0607C64.4789 32.0134 64.4601 31.968 64.4266 31.9346C64.3932 31.9011 64.3478 31.8824 64.3004 31.8824H63.6756C63.6284 31.8827 63.5831 31.9016 63.5497 31.935C63.5163 31.9684 63.4974 32.0135 63.4971 32.0607V33.0434C63.4971 33.5166 63.6851 33.9704 64.0199 34.305C64.3548 34.6396 64.8089 34.8275 65.2824 34.8275H68.7898C69.0249 34.8278 69.2577 34.7814 69.4746 34.6909C69.6915 34.6004 69.8882 34.4677 70.0533 34.3005C70.0619 34.2926 70.0732 34.2882 70.0849 34.2882C70.0966 34.2882 70.1079 34.2926 70.1165 34.3005C70.2816 34.4677 70.4783 34.6004 70.6952 34.6909C70.9121 34.7814 71.1449 34.8278 71.3799 34.8275H71.7342C72.2077 34.8275 72.6618 34.6396 72.9966 34.305C73.3314 33.9704 73.5195 33.5166 73.5195 33.0434V32.0607C73.5192 32.0141 73.5006 31.9695 73.4677 31.9364C73.4349 31.9033 73.3904 31.8844 73.3437 31.8837H73.3506Z" fill="#00A2A4"/>
<path d="M77.9483 33.0434V32.6893C77.9483 32.2161 77.7601 31.7623 77.4253 31.4277C77.0905 31.0931 76.6364 30.9052 76.1629 30.9052H74.6893C74.6421 30.9055 74.5969 30.9244 74.5635 30.9578C74.5301 30.9912 74.5111 31.0364 74.5108 31.0836V31.708C74.5108 31.7553 74.5296 31.8007 74.5631 31.8342C74.5966 31.8676 74.642 31.8864 74.6893 31.8864H76.0764C76.3131 31.8864 76.5402 31.9804 76.7076 32.1477C76.875 32.315 76.9691 32.5419 76.9691 32.7785V32.9569C76.9691 33.1935 76.875 33.4204 76.7076 33.5877C76.5402 33.755 76.3131 33.849 76.0764 33.849H74.1991C74.1756 33.8488 74.1523 33.8533 74.1306 33.8622C74.1088 33.8711 74.089 33.8842 74.0724 33.9008C74.0558 33.9174 74.0427 33.9372 74.0338 33.9589C74.0248 33.9806 74.0203 34.0039 74.0205 34.0274V34.6518C74.0205 34.6991 74.0393 34.7445 74.0728 34.778C74.1063 34.8114 74.1517 34.8302 74.1991 34.8302H76.1629C76.6364 34.8302 77.0905 34.6423 77.4253 34.3077C77.7601 33.9731 77.9483 33.5193 77.9483 33.0461V33.0434Z" fill="#00A2A4"/>
<path d="M82.6777 31.8822H82.0555C82.0083 31.8826 81.963 31.9015 81.9296 31.9348C81.8962 31.9682 81.8774 32.0134 81.877 32.0606V32.9527C81.877 33.1893 81.783 33.4162 81.6156 33.5835C81.4482 33.7508 81.2211 33.8447 80.9843 33.8447H80.8031C80.5663 33.8447 80.3392 33.7508 80.1718 33.5835C80.0044 33.4162 79.9104 33.1893 79.9104 32.9527V32.0606C79.91 32.0134 79.8911 31.9682 79.8577 31.9348C79.8243 31.9015 79.7791 31.8826 79.7319 31.8822H79.107C79.0596 31.8822 79.0142 31.901 78.9807 31.9345C78.9473 31.9679 78.9284 32.0133 78.9284 32.0606V34.9152C78.9284 35.1518 78.8344 35.3787 78.667 35.546C78.4996 35.7133 78.2726 35.8073 78.0358 35.8073H77.1404C77.1169 35.8071 77.0936 35.8116 77.0719 35.8205C77.0501 35.8294 77.0304 35.8425 77.0138 35.8592C76.9972 35.8758 76.984 35.8955 76.9751 35.9172C76.9662 35.9389 76.9617 35.9622 76.9619 35.9857V36.6101C76.9619 36.6575 76.9807 36.7028 77.0141 36.7363C77.0476 36.7698 77.093 36.7886 77.1404 36.7886H78.1223C78.5958 36.7886 79.0499 36.6006 79.3848 36.266C79.7196 35.9314 79.9076 35.4776 79.9076 35.0044V34.7039C79.9081 34.6966 79.9104 34.6897 79.9142 34.6835C79.9179 34.6773 79.9231 34.6721 79.9293 34.6683C79.9354 34.6646 79.9425 34.6624 79.9497 34.6619C79.9569 34.6614 79.9642 34.6626 79.9708 34.6655C80.203 34.7721 80.4555 34.8273 80.7111 34.8274H81.0654C81.5389 34.8274 81.993 34.6394 82.3278 34.3049C82.6626 33.9703 82.8507 33.5164 82.8507 33.0433V32.062C82.851 32.0154 82.8331 31.9705 82.8008 31.9369C82.7684 31.9033 82.7243 31.8836 82.6777 31.8822Z" fill="#00A2A4"/>
<path d="M57.9259 31.8837H57.301C57.2538 31.884 57.2086 31.9029 57.1752 31.9363C57.1418 31.9697 57.1228 32.0149 57.1225 32.0621V32.9542C57.1225 33.1907 57.0285 33.4177 56.8611 33.5849C56.6936 33.7522 56.4665 33.8462 56.2298 33.8462H56.0513C55.8146 33.8462 55.5875 33.7522 55.4201 33.5849C55.2527 33.4177 55.1587 33.1907 55.1587 32.9542V32.0621C55.1583 32.0149 55.1393 31.9697 55.1059 31.9363C55.0725 31.9029 55.0274 31.884 54.9801 31.8837H54.3552C54.3079 31.8837 54.2625 31.9025 54.229 31.936C54.1955 31.9694 54.1767 32.0148 54.1767 32.0621V34.9167C54.1763 35.1532 54.0822 35.3799 53.9148 35.5471C53.7475 35.7143 53.5207 35.8084 53.2841 35.8088H52.1236C51.887 35.8084 51.6602 35.7143 51.4928 35.5471C51.3255 35.3799 51.2313 35.1532 51.231 34.9167V32.9542C51.231 32.9068 51.2122 32.8615 51.1787 32.828C51.1452 32.7945 51.0998 32.7757 51.0524 32.7757H50.4276C50.3803 32.7761 50.3352 32.795 50.3017 32.8284C50.2683 32.8618 50.2494 32.9069 50.249 32.9542V35.0128C50.249 35.4859 50.4372 35.9398 50.772 36.2743C51.1068 36.6089 51.5608 36.7969 52.0343 36.7969H53.3747C53.8482 36.7969 54.3023 36.6089 54.6371 36.2743C54.9719 35.9398 55.16 35.4859 55.16 35.0128V34.7122C55.1602 34.7049 55.1623 34.6977 55.1659 34.6913C55.1696 34.6849 55.1748 34.6796 55.1811 34.6758C55.1874 34.6719 55.1946 34.6698 55.2019 34.6694C55.2093 34.6691 55.2166 34.6706 55.2232 34.6738C55.4554 34.7805 55.7079 34.8357 55.9634 34.8357H56.3177C56.7912 34.8357 57.2453 34.6477 57.5802 34.3132C57.915 33.9786 58.103 33.5248 58.103 33.0516V32.069C58.1028 32.0454 58.0981 32.022 58.0889 32.0003C58.0797 31.9785 58.0662 31.9588 58.0494 31.9422C58.0325 31.9257 58.0126 31.9126 57.9907 31.9037C57.9688 31.8948 57.9454 31.8904 57.9218 31.8906L57.9259 31.8837Z" fill="#00A2A4"/>
<path d="M81.1128 32.6622C81.4085 32.5398 81.5489 32.201 81.4264 31.9055C81.3039 31.61 80.9649 31.4696 80.6692 31.592C80.3735 31.7144 80.2331 32.0532 80.3556 32.3487C80.4781 32.6442 80.8171 32.7846 81.1128 32.6622Z" fill="#00A2A4"/>
<path d="M79.4633 31.0794C79.7834 31.0794 80.0429 30.8201 80.0429 30.5002C80.0429 30.1803 79.7834 29.9211 79.4633 29.9211C79.1433 29.9211 78.8838 30.1803 78.8838 30.5002C78.8838 30.8201 79.1433 31.0794 79.4633 31.0794Z" fill="#00A2A4"/>
<path d="M60.4672 31.0794C60.7873 31.0794 61.0468 30.8201 61.0468 30.5002C61.0468 30.1803 60.7873 29.9211 60.4672 29.9211C60.1472 29.9211 59.8877 30.1803 59.8877 30.5002C59.8877 30.8201 60.1472 31.0794 60.4672 31.0794Z" fill="#00A2A4"/>
<path d="M61.9232 31.2322C62.2407 31.1808 62.4563 30.8819 62.4049 30.5647C62.3534 30.2475 62.0543 30.032 61.7369 30.0834C61.4194 30.1349 61.2038 30.4337 61.2553 30.7509C61.3067 31.0682 61.6058 31.2837 61.9232 31.2322Z" fill="#00A2A4"/>
<path d="M70.9887 36.8779C71.3088 36.8779 71.5683 36.6186 71.5683 36.2987C71.5683 35.9789 71.3088 35.7196 70.9887 35.7196C70.6687 35.7196 70.4092 35.9789 70.4092 36.2987C70.4092 36.6186 70.6687 36.8779 70.9887 36.8779Z" fill="#00A2A4"/>
<path d="M72.1469 36.8779C72.467 36.8779 72.7265 36.6186 72.7265 36.2987C72.7265 35.9789 72.467 35.7196 72.1469 35.7196C71.8269 35.7196 71.5674 35.9789 71.5674 36.2987C71.5674 36.6186 71.8269 36.8779 72.1469 36.8779Z" fill="#00A2A4"/>
<path d="M48.6185 32.0387L47.8371 32.8114C47.8202 32.8278 47.8067 32.8474 47.7975 32.8691C47.7883 32.8908 47.7836 32.9141 47.7836 32.9376V32.9541C47.7836 33.1907 47.6895 33.4176 47.5221 33.5849C47.3547 33.7522 47.1277 33.8462 46.8909 33.8462H46.7124C46.4756 33.8462 46.2486 33.7522 46.0812 33.5849C45.9138 33.4176 45.8197 33.1907 45.8197 32.9541V32.062C45.8199 32.0385 45.8154 32.0152 45.8065 31.9934C45.7976 31.9715 45.7845 31.9517 45.7679 31.935C45.7513 31.9183 45.7316 31.905 45.7098 31.896C45.6881 31.8869 45.6647 31.8823 45.6412 31.8823H45.0163C44.9688 31.8826 44.9234 31.9017 44.89 31.9354C44.8565 31.9691 44.8378 32.0146 44.8378 32.062V32.9541C44.8378 33.1907 44.7437 33.4176 44.5763 33.5849C44.4089 33.7522 44.1819 33.8462 43.9451 33.8462H43.7652C43.5285 33.8462 43.3014 33.7522 43.134 33.5849C42.9666 33.4176 42.8726 33.1907 42.8726 32.9541V30.0981C42.8722 30.0509 42.8533 30.0058 42.8199 29.9724C42.7865 29.939 42.7413 29.9201 42.694 29.9197H42.0692C42.0218 29.9197 41.9764 29.9385 41.9429 29.972C41.9094 30.0054 41.8906 30.0508 41.8906 30.0981V33.0433C41.8906 33.5165 42.0787 33.9703 42.4135 34.3049C42.7484 34.6395 43.2025 34.8275 43.676 34.8275H44.0303C44.2651 34.8272 44.4976 34.7806 44.7144 34.6904C44.9312 34.6002 45.1281 34.4682 45.2937 34.3018C45.2978 34.2976 45.3027 34.2942 45.3082 34.2919C45.3136 34.2896 45.3194 34.2884 45.3253 34.2884C45.3312 34.2884 45.337 34.2896 45.3424 34.2919C45.3479 34.2942 45.3528 34.2976 45.3569 34.3018C45.5226 34.4682 45.7194 34.6002 45.9362 34.6904C46.153 34.7806 46.3855 34.8272 46.6203 34.8275H46.9747C47.21 34.8287 47.4431 34.7835 47.6608 34.6944C47.8786 34.6053 48.0765 34.4741 48.2433 34.3083C48.4101 34.1425 48.5425 33.9454 48.6328 33.7283C48.7231 33.5112 48.7696 33.2784 48.7696 33.0433V32.0991C48.7688 32.0818 48.7631 32.0651 48.753 32.051C48.7428 32.0369 48.7288 32.0261 48.7127 32.0199C48.6965 32.0136 48.6789 32.0122 48.6619 32.0158C48.645 32.0194 48.6294 32.0278 48.6172 32.0401L48.6185 32.0387Z" fill="#00A2A4"/>
<path d="M27.926 31.8823H27.3012C27.2537 31.8826 27.2083 31.9017 27.1748 31.9354C27.1414 31.9691 27.1226 32.0146 27.1226 32.062V33.3384C27.1249 33.4632 27.0809 33.5845 26.9989 33.6788C26.917 33.7731 26.8031 33.8337 26.679 33.8489C26.6109 33.8554 26.5421 33.8476 26.4772 33.826C26.4122 33.8045 26.3525 33.7695 26.3018 33.7235C26.2511 33.6775 26.2106 33.6215 26.1829 33.5589C26.1551 33.4964 26.1408 33.4288 26.1407 33.3604V32.0607C26.1407 32.0132 26.1219 31.9677 26.0885 31.934C26.0551 31.9004 26.0096 31.8813 25.9622 31.8809H25.34C25.2926 31.8813 25.2472 31.9004 25.2137 31.934C25.1803 31.9677 25.1615 32.0132 25.1615 32.0607V33.3535C25.1615 33.4838 25.1097 33.6088 25.0175 33.7009C24.9253 33.793 24.8003 33.8448 24.6699 33.8448H24.6383C24.575 33.8456 24.5122 33.8331 24.454 33.8083C24.3958 33.7834 24.3434 33.7467 24.3003 33.7004C24.2571 33.6542 24.224 33.5994 24.2033 33.5397C24.1825 33.4799 24.1744 33.4165 24.1796 33.3535V32.0607C24.1796 32.0132 24.1608 31.9677 24.1274 31.934C24.0939 31.9004 24.0485 31.8813 24.0011 31.8809H23.3817C23.3581 31.8809 23.3348 31.8855 23.3131 31.8946C23.2913 31.9036 23.2716 31.9169 23.255 31.9336C23.2384 31.9503 23.2253 31.9702 23.2164 31.992C23.2075 32.0138 23.203 32.0371 23.2032 32.0607V33.3535C23.2058 33.4171 23.1955 33.4806 23.1729 33.5401C23.1503 33.5996 23.1159 33.6539 23.0718 33.6998C23.0277 33.7457 22.9747 33.7822 22.9161 33.8071C22.8575 33.832 22.7944 33.8449 22.7307 33.8448H20.4277C20.4041 33.8446 20.3808 33.8491 20.359 33.858C20.3371 33.8669 20.3173 33.88 20.3005 33.8966C20.2838 33.9132 20.2706 33.9329 20.2615 33.9546C20.2525 33.9764 20.2478 33.9997 20.2478 34.0232V34.6477C20.2481 34.6951 20.2673 34.7405 20.301 34.7739C20.3347 34.8073 20.3802 34.8261 20.4277 34.8261H21.3121C21.3241 34.8261 21.3357 34.8309 21.3442 34.8393C21.3527 34.8478 21.3574 34.8593 21.3574 34.8713V34.9153C21.3574 35.1519 21.2634 35.3788 21.096 35.5461C20.9286 35.7134 20.7015 35.8073 20.4648 35.8073H19.2974C19.0607 35.8073 18.8336 35.7134 18.6662 35.5461C18.4988 35.3788 18.4048 35.1519 18.4048 34.9153V32.9541C18.4048 32.9066 18.386 32.8612 18.3526 32.8275C18.3191 32.7938 18.2737 32.7747 18.2263 32.7743H17.6014C17.5778 32.7743 17.5545 32.779 17.5327 32.788C17.511 32.7971 17.4913 32.8103 17.4747 32.8271C17.4581 32.8438 17.4449 32.8636 17.4361 32.8854C17.4272 32.9072 17.4227 32.9305 17.4229 32.9541V35.0045C17.4229 35.4777 17.611 35.9314 17.9458 36.266C18.2806 36.6006 18.7347 36.7886 19.2082 36.7886H20.5472C20.7816 36.7886 21.0138 36.7425 21.2304 36.6528C21.447 36.5632 21.6438 36.4317 21.8096 36.266C21.9754 36.1004 22.1069 35.9037 22.1966 35.6872C22.2863 35.4708 22.3325 35.2388 22.3325 35.0045V34.8672C22.3325 34.8552 22.3373 34.8437 22.3458 34.8352C22.3543 34.8267 22.3658 34.822 22.3778 34.822H22.6978C23.0477 34.8219 23.3859 34.6962 23.6509 34.4678C23.659 34.4617 23.6689 34.4584 23.679 34.4584C23.6892 34.4584 23.6991 34.4617 23.7072 34.4678C23.9723 34.6959 24.3104 34.8215 24.6603 34.822C25.0101 34.8219 25.3484 34.6962 25.6133 34.4678C25.6217 34.4616 25.6318 34.4583 25.6422 34.4583C25.6526 34.4583 25.6627 34.4616 25.671 34.4678C25.9488 34.7076 26.3067 34.8341 26.6735 34.822C27.0601 34.8025 27.4242 34.6346 27.6898 34.3533C27.9554 34.072 28.102 33.6991 28.099 33.3123V32.0607C28.0992 32.037 28.0947 32.0136 28.0857 31.9917C28.0767 31.9698 28.0635 31.9499 28.0468 31.9331C28.03 31.9164 28.0101 31.9032 27.9882 31.8942C27.9663 31.8852 27.9428 31.8807 27.9191 31.8809L27.926 31.8823Z" fill="#00A2A4"/>
<path d="M30.1144 31.8822C29.7446 31.8711 29.3841 31.9994 29.1047 32.2418C28.8253 32.4842 28.6475 32.8228 28.6067 33.1903C28.5658 33.5578 28.6649 33.9271 28.8842 34.2249C29.1036 34.5227 29.427 34.727 29.7903 34.7972C30.0282 34.8449 30.2743 34.8316 30.5057 34.7588C30.5123 34.7566 30.5193 34.7561 30.5261 34.7571C30.5329 34.7581 30.5394 34.7607 30.5451 34.7648C30.5507 34.7688 30.5553 34.7741 30.5585 34.7802C30.5617 34.7863 30.5634 34.793 30.5635 34.7999V34.918C30.5635 35.1546 30.4694 35.3815 30.302 35.5488C30.1346 35.716 29.9076 35.8101 29.6708 35.8101H28.7781C28.7308 35.8101 28.6854 35.8288 28.6519 35.8623C28.6184 35.8957 28.5996 35.9411 28.5996 35.9884V36.6129C28.6 36.6601 28.6189 36.7053 28.6523 36.7387C28.6857 36.7721 28.7309 36.791 28.7781 36.7913H29.7628C30.2363 36.7913 30.6904 36.6033 31.0252 36.2688C31.36 35.9342 31.5481 35.4804 31.5481 35.0072V33.3905C31.545 33.0043 31.3952 32.6337 31.129 32.3537C30.8628 32.0737 30.5002 31.9052 30.1144 31.8822ZM30.0745 33.8448C29.9605 33.8439 29.8504 33.8034 29.763 33.7303C29.6755 33.6573 29.6162 33.5561 29.5952 33.4442C29.5742 33.3322 29.5927 33.2164 29.6476 33.1166C29.7026 33.0168 29.7905 32.9392 29.8964 32.897C30.0023 32.8548 30.1196 32.8508 30.2281 32.8855C30.3367 32.9202 30.4299 32.9915 30.4916 33.0872C30.5534 33.183 30.5799 33.2972 30.5667 33.4104C30.5535 33.5235 30.5014 33.6285 30.4192 33.7075C30.3267 33.7965 30.203 33.8458 30.0745 33.8448Z" fill="#00A2A4"/>
<path d="M41.2261 31.8823H40.6013C40.5538 31.8827 40.5084 31.9018 40.475 31.9355C40.4415 31.9692 40.4227 32.0147 40.4228 32.0621V32.9542C40.4228 33.1908 40.3287 33.4177 40.1613 33.585C39.9939 33.7523 39.7668 33.8462 39.5301 33.8462H38.7061C38.6991 33.8459 38.6923 33.844 38.6862 33.8407C38.6801 33.8373 38.6749 33.8326 38.6709 33.8269C38.6669 33.8212 38.6643 33.8146 38.6633 33.8078C38.6622 33.8009 38.6628 33.7939 38.6649 33.7872C38.7282 33.5864 38.7464 33.3742 38.7185 33.1655C38.6678 32.797 38.4793 32.4613 38.1909 32.2261C37.9026 31.9909 37.5357 31.8735 37.1643 31.8977C36.7928 31.9219 36.4443 32.0858 36.1889 32.3564C35.9335 32.627 35.7902 32.9843 35.7878 33.3563C35.7878 33.5029 35.81 33.6487 35.8537 33.7886C35.8559 33.7954 35.8564 33.8025 35.8553 33.8095C35.8542 33.8165 35.8514 33.8231 35.8473 33.8288C35.8432 33.8346 35.8377 33.8393 35.8315 33.8425C35.8252 33.8458 35.8182 33.8475 35.8111 33.8476H34.9871C34.8676 33.848 34.7494 33.8237 34.6397 33.7763C34.5864 33.7543 34.5354 33.7271 34.4873 33.6953C34.4639 33.6788 34.4406 33.6623 34.4186 33.6431C34.2375 33.4939 34.1226 33.2794 34.0986 33.0461V32.0635C34.0986 32.0162 34.0798 31.9708 34.0463 31.9373C34.0129 31.9039 33.9675 31.8851 33.9201 31.8851H33.2952C33.2477 31.8855 33.2023 31.9045 33.1689 31.9382C33.1355 31.9719 33.1167 32.0174 33.1167 32.0649V34.9181C33.1167 35.1547 33.0226 35.3816 32.8552 35.5489C32.6878 35.7162 32.4608 35.8102 32.224 35.8102C32.2008 35.8102 32.1778 35.8147 32.1563 35.8236C32.1348 35.8325 32.1152 35.8456 32.0988 35.862C32.0823 35.8784 32.0693 35.898 32.0604 35.9194C32.0515 35.9409 32.0469 35.9639 32.0469 35.9872V36.6144C32.0469 36.6613 32.0655 36.7064 32.0988 36.7396C32.132 36.7728 32.177 36.7914 32.224 36.7914H32.3133C32.7868 36.7914 33.2409 36.6034 33.5757 36.2689C33.9105 35.9343 34.0986 35.4805 34.0986 35.0073V34.7068C34.0989 34.6994 34.101 34.6923 34.1047 34.6859C34.1084 34.6795 34.1135 34.6742 34.1197 34.6702C34.1259 34.6663 34.133 34.664 34.1403 34.6634C34.1477 34.6628 34.155 34.664 34.1618 34.6669C34.3941 34.7732 34.6465 34.8285 34.902 34.8289H36.8397C37.0041 34.8286 37.1623 34.7658 37.282 34.6532C37.2851 34.6495 37.289 34.6465 37.2933 34.6444C37.2977 34.6423 37.3025 34.6413 37.3074 34.6413C37.3122 34.6413 37.317 34.6423 37.3214 34.6444C37.3258 34.6465 37.3297 34.6495 37.3328 34.6532C37.4514 34.7658 37.6087 34.8286 37.7723 34.8289H39.6331C40.1066 34.8289 40.5607 34.6409 40.8955 34.3063C41.2303 33.9717 41.4184 33.518 41.4184 33.0448V32.0635C41.4186 32.0391 41.4139 32.0149 41.4044 31.9925C41.3949 31.97 41.3809 31.9498 41.3633 31.9329C41.3456 31.9161 41.3247 31.903 41.3019 31.8946C41.279 31.8861 41.2546 31.8824 41.2303 31.8837L41.2261 31.8823ZM37.2545 33.8462C37.141 33.8446 37.0316 33.8037 36.9449 33.7304C36.8583 33.6571 36.7998 33.5561 36.7794 33.4445C36.7589 33.3329 36.7779 33.2178 36.833 33.1186C36.888 33.0194 36.9758 32.9424 37.0814 32.9007C37.187 32.859 37.3037 32.8552 37.4117 32.8899C37.5198 32.9247 37.6125 32.9958 37.6739 33.0912C37.7353 33.1866 37.7617 33.3003 37.7486 33.413C37.7355 33.5256 37.6837 33.6303 37.602 33.709C37.509 33.7992 37.3841 33.849 37.2545 33.8476V33.8462Z" fill="#00A2A4"/>
<path d="M39.3999 36.8764C39.7199 36.8764 39.9794 36.6171 39.9794 36.2972C39.9794 35.9774 39.7199 35.7181 39.3999 35.7181C39.0798 35.7181 38.8203 35.9774 38.8203 36.2972C38.8203 36.6171 39.0798 36.8764 39.3999 36.8764Z" fill="#00A2A4"/>
<path d="M44.1916 31.0684C44.5059 31.0079 44.7116 30.7043 44.6511 30.3902C44.5906 30.0761 44.2867 29.8705 43.9724 29.931C43.6581 29.9915 43.4524 30.2951 43.5129 30.6092C43.5734 30.9233 43.8773 31.1289 44.1916 31.0684Z" fill="#00A2A4"/>
<path d="M45.2963 31.08C45.6148 31.0485 45.8475 30.7649 45.816 30.4466C45.7845 30.1283 45.5007 29.8958 45.1822 29.9273C44.8637 29.9588 44.631 30.2424 44.6625 30.5607C44.694 30.879 44.9778 31.1115 45.2963 31.08Z" fill="#00A2A4"/>
<path d="M37.4221 31.0649C37.7336 30.9915 37.9265 30.6795 37.853 30.3682C37.7795 30.0569 37.4674 29.8641 37.1558 29.9376C36.8443 30.0111 36.6514 30.323 36.7249 30.6343C36.7984 30.9456 37.1106 31.1384 37.4221 31.0649Z" fill="#00A2A4"/>
<path d="M25.063 30.5513C25.0946 30.233 24.8619 29.9494 24.5434 29.9179C24.2249 29.8864 23.9411 30.1189 23.9096 30.4372C23.8781 30.7555 24.1107 31.0391 24.4293 31.0706C24.7478 31.1021 25.0315 30.8696 25.063 30.5513Z" fill="#00A2A4"/>
<path d="M25.6499 31.078C25.9699 31.078 26.2294 30.8187 26.2294 30.4989C26.2294 30.179 25.9699 29.9197 25.6499 29.9197C25.3298 29.9197 25.0703 30.179 25.0703 30.4989C25.0703 30.8187 25.3298 31.078 25.6499 31.078Z" fill="#00A2A4"/>
<path d="M26.809 31.078C27.1291 31.078 27.3886 30.8187 27.3886 30.4989C27.3886 30.179 27.1291 29.9197 26.809 29.9197C26.489 29.9197 26.2295 30.179 26.2295 30.4989C26.2295 30.8187 26.489 31.078 26.809 31.078Z" fill="#00A2A4"/>
<path d="M52.7055 34.9152C53.0256 34.9152 53.2851 34.6559 53.2851 34.3361C53.2851 34.0162 53.0256 33.7569 52.7055 33.7569C52.3854 33.7569 52.126 34.0162 52.126 34.3361C52.126 34.6559 52.3854 34.9152 52.7055 34.9152Z" fill="#00A2A4"/>
<path d="M69.8272 32.1101L71.7182 30.2203C71.7597 30.1792 71.7926 30.1302 71.815 30.0762C71.8374 30.0223 71.8488 29.9645 71.8487 29.9061V29.0222C71.8467 28.9969 71.8378 28.9727 71.8229 28.9521C71.8079 28.9316 71.7876 28.9156 71.7641 28.9059C71.7406 28.8963 71.7149 28.8933 71.6898 28.8974C71.6648 28.9014 71.6413 28.9123 71.6221 28.9289L69.731 30.8187C69.6478 30.9022 69.601 31.0151 69.6006 31.133V32.0154C69.6023 32.0408 69.6111 32.0653 69.6259 32.086C69.6407 32.1067 69.6611 32.1229 69.6846 32.1327C69.7081 32.1426 69.7339 32.1457 69.7591 32.1417C69.7843 32.1377 69.8078 32.1267 69.8272 32.1101Z" fill="#00A2A4"/>
<path d="M49.8115 28.9261L47.9205 30.8159C47.8373 30.8994 47.7904 31.0123 47.79 31.1302V32.014C47.792 32.0393 47.8009 32.0636 47.8159 32.0841C47.8308 32.1047 47.8511 32.1206 47.8746 32.1303C47.8981 32.1399 47.9238 32.1429 47.9489 32.1389C47.9739 32.1348 47.9974 32.1239 48.0166 32.1073L49.9077 30.2176C49.9912 30.1342 50.0381 30.0212 50.0382 29.9033V29.0139C50.0364 28.9885 50.0276 28.9641 50.0128 28.9434C49.998 28.9226 49.9776 28.9065 49.9541 28.8967C49.9306 28.8868 49.9048 28.8838 49.8796 28.8877C49.8544 28.8917 49.8309 28.9026 49.8115 28.9192V28.9261Z" fill="#00A2A4"/>
<path d="M62.8345 31.8837H62.2096C62.1622 31.8837 62.1168 31.9025 62.0834 31.936C62.0499 31.9694 62.0311 32.0148 62.0311 32.0621V32.9542C62.0307 33.1906 61.9365 33.4174 61.7692 33.5846C61.6019 33.7518 61.375 33.8458 61.1384 33.8462H60.9598C60.7232 33.8458 60.4964 33.7518 60.3291 33.5846C60.1617 33.4174 60.0676 33.1906 60.0672 32.9542V32.0621C60.0672 32.0148 60.0484 31.9694 60.0149 31.936C59.9814 31.9025 59.936 31.8837 59.8887 31.8837H59.2638C59.2166 31.884 59.1714 31.9029 59.138 31.9363C59.1046 31.9697 59.0856 32.0149 59.0853 32.0621V34.9167C59.0853 35.1149 59.0193 35.3075 58.8977 35.464C58.7761 35.6206 58.6058 35.7322 58.4137 35.7813C58.3742 35.7911 58.3393 35.814 58.3144 35.8461C58.2894 35.8782 58.2761 35.9177 58.2764 35.9583V36.602C58.2761 36.6268 58.2811 36.6514 58.2909 36.6742C58.3007 36.697 58.3152 36.7175 58.3335 36.7343C58.3517 36.7512 58.3733 36.7639 58.3968 36.7719C58.4204 36.7798 58.4453 36.7827 58.47 36.7804C58.9068 36.7324 59.3106 36.5252 59.604 36.1983C59.8974 35.8714 60.0599 35.4478 60.0603 35.0087V34.7081C60.0608 34.7007 60.0629 34.6935 60.0668 34.6872C60.0706 34.6808 60.076 34.6755 60.0824 34.6718C60.0888 34.668 60.0959 34.6658 60.1033 34.6654C60.1107 34.6651 60.1182 34.6665 60.1249 34.6697C60.3572 34.7759 60.6096 34.8312 60.8651 34.8316H61.2194C61.6929 34.8316 62.147 34.6436 62.4818 34.3091C62.8167 33.9745 63.0047 33.5207 63.0047 33.0475V32.0662C63.0051 32.019 62.9869 31.9735 62.954 31.9396C62.9211 31.9057 62.8762 31.8861 62.8289 31.8851L62.8345 31.8837Z" fill="#00A2A4"/>
<path d="M56.0053 36.8779C56.3254 36.8779 56.5849 36.6186 56.5849 36.2987C56.5849 35.9789 56.3254 35.7196 56.0053 35.7196C55.6853 35.7196 55.4258 35.9789 55.4258 36.2987C55.4258 36.6186 55.6853 36.8779 56.0053 36.8779Z" fill="#00A2A4"/>
<path d="M57.2971 36.8648C57.6086 36.7913 57.8015 36.4794 57.728 36.1681C57.6545 35.8568 57.3424 35.664 57.0308 35.7375C56.7193 35.8109 56.5264 36.1229 56.5999 36.4342C56.6734 36.7455 56.9856 36.9383 57.2971 36.8648Z" fill="#00A2A4"/>
<path d="M12.3276 31.078C12.6477 31.078 12.9071 30.8187 12.9071 30.4989C12.9071 30.179 12.6477 29.9197 12.3276 29.9197C12.0075 29.9197 11.748 30.179 11.748 30.4989C11.748 30.8187 12.0075 31.078 12.3276 31.078Z" fill="#00A2A4"/>
<path d="M13.5344 31.0738C13.8536 31.0511 14.094 30.7741 14.0713 30.455C14.0486 30.136 13.7714 29.8958 13.4521 29.9185C13.1328 29.9412 12.8924 30.2182 12.9152 30.5373C12.9379 30.8563 13.2151 31.0965 13.5344 31.0738Z" fill="#00A2A4"/>
<path d="M14.6479 31.078C14.968 31.078 15.2274 30.8187 15.2274 30.4989C15.2274 30.179 14.968 29.9197 14.6479 29.9197C14.3278 29.9197 14.0684 30.179 14.0684 30.4989C14.0684 30.8187 14.3278 31.078 14.6479 31.078Z" fill="#00A2A4"/>
<path d="M15.7749 31.8823H15.1487C15.1012 31.8826 15.0558 31.9017 15.0224 31.9354C14.9889 31.9691 14.9702 32.0146 14.9702 32.062V33.3384C14.9721 33.4631 14.928 33.5842 14.8461 33.6784C14.7643 33.7727 14.6505 33.8334 14.5266 33.8489C14.4584 33.8554 14.3897 33.8476 14.3247 33.826C14.2598 33.8044 14.2 33.7695 14.1494 33.7235C14.0987 33.6775 14.0582 33.6215 14.0304 33.5589C14.0027 33.4964 13.9883 33.4288 13.9882 33.3603V32.0606C13.9882 32.0132 13.9695 31.9677 13.936 31.934C13.9026 31.9004 13.8572 31.8813 13.8097 31.8809H13.1849C13.1613 31.8809 13.138 31.8855 13.1162 31.8946C13.0945 31.9036 13.0747 31.9169 13.0581 31.9336C13.0415 31.9503 13.0284 31.9702 13.0195 31.992C13.0106 32.0138 13.0061 32.0371 13.0063 32.0606V33.3535C13.0073 33.4553 12.9763 33.5548 12.9177 33.638C12.859 33.7213 12.7757 33.784 12.6795 33.8173C12.6053 33.8431 12.526 33.8509 12.4482 33.8399C12.3705 33.8288 12.2965 33.7994 12.2324 33.754C12.1683 33.7087 12.116 33.6486 12.0798 33.5789C12.0436 33.5093 12.0246 33.432 12.0244 33.3535V32.0606C12.0244 32.0132 12.0056 31.9677 11.9722 31.934C11.9387 31.9004 11.8933 31.8813 11.8459 31.8809H11.221C11.1974 31.8809 11.1741 31.8855 11.1524 31.8946C11.1306 31.9036 11.1109 31.9169 11.0943 31.9336C11.0777 31.9503 11.0645 31.9702 11.0557 31.992C11.0468 32.0138 11.0423 32.0371 11.0425 32.0606V33.3535C11.0489 33.4163 11.0419 33.4798 11.0219 33.5398C11.002 33.5997 10.9695 33.6547 10.9266 33.7011C10.8838 33.7476 10.8316 33.7844 10.7734 33.8092C10.7152 33.834 10.6525 33.8461 10.5893 33.8448H9.57302C9.28826 33.8414 9.00833 33.9184 8.76551 34.0671C8.73255 34.0891 8.70096 34.1097 8.66938 34.1316C8.63779 34.1536 8.62405 34.122 8.63779 34.0987C8.65152 34.0754 8.67624 34.0355 8.69272 34.0012C8.80006 33.7926 8.85386 33.5606 8.84928 33.326C8.84208 32.9403 8.68361 32.573 8.408 32.3029C8.13239 32.0329 7.76168 31.8818 7.37571 31.8823H6.39379C6.20034 31.8821 6.00875 31.92 5.82998 31.9938C5.6512 32.0677 5.48875 32.1761 5.3519 32.3127C5.21504 32.4493 5.10647 32.6116 5.0324 32.7902C4.95833 32.9687 4.92021 33.1602 4.92021 33.3535C4.92039 33.4179 4.90784 33.4818 4.88329 33.5414C4.85873 33.601 4.82264 33.6552 4.77709 33.7008C4.73155 33.7464 4.67745 33.7826 4.61788 33.8074C4.5583 33.8321 4.49444 33.8448 4.42994 33.8448H3.83941C3.60267 33.8448 3.37561 33.7508 3.2082 33.5835C3.04079 33.4162 2.94675 33.1893 2.94675 32.9527V32.0606C2.94675 32.0133 2.92794 31.968 2.89446 31.9345C2.86098 31.901 2.81556 31.8823 2.76821 31.8823H2.14336C2.09612 31.8826 2.05092 31.9015 2.01752 31.9349C1.98411 31.9683 1.96518 32.0134 1.96482 32.0606V34.9153C1.96482 35.1519 1.87078 35.3788 1.70338 35.5461C1.53597 35.7134 1.30892 35.8073 1.07217 35.8073H0.179515C0.132039 35.8077 0.0866287 35.8268 0.0531864 35.8605C0.0197442 35.8942 0.000975179 35.9397 0.000976563 35.9871V36.6102C0.000975179 36.6576 0.0197442 36.7031 0.0531864 36.7368C0.0866287 36.7705 0.132039 36.7896 0.179515 36.79H1.16692C1.64042 36.79 2.09453 36.602 2.42934 36.2674C2.76415 35.9328 2.95224 35.479 2.95224 35.0059V34.7053C2.95254 34.6979 2.95461 34.6908 2.95829 34.6844C2.96197 34.6781 2.96714 34.6727 2.97336 34.6688C2.97957 34.6649 2.98665 34.6625 2.99398 34.662C3.0013 34.6614 3.00866 34.6626 3.01541 34.6655C3.24748 34.7725 3.50006 34.8278 3.75563 34.8274H4.44229C4.62619 34.8275 4.80842 34.7925 4.97926 34.7245C4.98712 34.7216 4.99563 34.7211 5.00379 34.7229C5.01195 34.7247 5.01943 34.7288 5.02534 34.7347C5.03125 34.7406 5.03535 34.7481 5.03716 34.7562C5.03897 34.7644 5.03842 34.7729 5.03557 34.7808C4.9675 34.9515 4.93255 35.1336 4.93257 35.3174C4.93257 35.5107 4.9707 35.7021 5.04477 35.8807C5.11884 36.0593 5.2274 36.2215 5.36425 36.3582C5.5011 36.4948 5.66356 36.6032 5.84233 36.677C6.02111 36.7509 6.21269 36.7888 6.40614 36.7886H7.61191C7.80559 36.7891 7.99748 36.7515 8.17657 36.6778C8.35566 36.6041 8.51844 36.4958 8.65559 36.3591C8.79273 36.2225 8.90154 36.0601 8.97578 35.8813C9.05002 35.7026 9.08824 35.5109 9.08824 35.3174C9.0886 35.1873 9.14056 35.0627 9.23272 34.9709C9.32489 34.879 9.44973 34.8274 9.57989 34.8274H10.5618C10.9117 34.8273 11.2499 34.7016 11.5149 34.4734C11.5228 34.4668 11.5328 34.4632 11.543 34.4632C11.5533 34.4632 11.5633 34.4668 11.5712 34.4734C11.8367 34.7012 12.175 34.8264 12.525 34.8264C12.8749 34.8264 13.2133 34.7012 13.4787 34.4734C13.4865 34.4665 13.4965 34.4627 13.5069 34.4627C13.5173 34.4627 13.5273 34.4665 13.535 34.4734C13.8129 34.7129 14.1708 34.8393 14.5376 34.8274C14.9226 34.8059 15.2847 34.6371 15.5485 34.3561C15.8124 34.075 15.9579 33.7032 15.9548 33.3178V32.0606C15.9545 32.0132 15.9354 31.9678 15.9017 31.9344C15.868 31.901 15.8224 31.8823 15.7749 31.8823ZM5.88703 33.3535C5.88703 33.2235 5.93868 33.0989 6.03062 33.007C6.12257 32.9151 6.24728 32.8635 6.37731 32.8635H7.35923C7.42588 32.86 7.49256 32.8701 7.5552 32.8931C7.61783 32.9162 7.67511 32.9518 7.72354 32.9977C7.77197 33.0436 7.81054 33.0989 7.8369 33.1601C7.86326 33.2214 7.87685 33.2874 7.87685 33.3541C7.87685 33.4209 7.86326 33.4869 7.8369 33.5481C7.81054 33.6094 7.77197 33.6647 7.72354 33.7107C7.67511 33.7566 7.61783 33.7921 7.5552 33.8152C7.49256 33.8383 7.42588 33.8483 7.35923 33.8448H6.37731C6.31281 33.8448 6.24894 33.8321 6.18937 33.8074C6.1298 33.7826 6.07569 33.7464 6.03014 33.7008C5.9846 33.6552 5.94851 33.601 5.92395 33.5414C5.89939 33.4818 5.88685 33.4179 5.88703 33.3535ZM8.22167 34.6683C8.1333 34.8729 8.08662 35.0931 8.08434 35.316C8.08361 35.446 8.03154 35.5704 7.93945 35.6621C7.84737 35.7539 7.72273 35.8056 7.59269 35.8059H6.38005C6.25433 35.7993 6.13595 35.7447 6.04932 35.6535C5.96268 35.5622 5.91438 35.4411 5.91438 35.3153C5.91438 35.1895 5.96268 35.0685 6.04932 34.9772C6.13595 34.8859 6.25433 34.8313 6.38005 34.8247H7.32489C7.60537 34.8225 7.88006 34.7447 8.12005 34.5996C8.21206 34.5475 8.256 34.5873 8.22441 34.6683H8.22167Z" fill="#00A2A4"/>
<path d="M82.623 24.4055H36.463C36.404 23.892 36.1582 23.4182 35.7722 23.0743C35.3863 22.7303 34.8872 22.5402 34.3701 22.5402C33.8529 22.5402 33.3538 22.7303 32.9679 23.0743C32.5819 23.4182 32.3361 23.892 32.2771 24.4055H32.2455C32.1908 23.8883 31.9465 23.4097 31.5597 23.0618C31.1729 22.714 30.6709 22.5215 30.1505 22.5215C29.6302 22.5215 29.1282 22.714 28.7414 23.0618C28.3545 23.4097 28.1103 23.8883 28.0555 24.4055H28.0336C27.9804 23.887 27.7366 23.4067 27.3495 23.0575C26.9624 22.7082 26.4594 22.5149 25.9379 22.5149C25.4164 22.5149 24.9134 22.7082 24.5263 23.0575C24.1391 23.4067 23.8954 23.887 23.8422 24.4055H0.236207C0.17356 24.4055 0.113482 24.4303 0.0691836 24.4746C0.0248854 24.5189 0 24.5789 0 24.6415C0 24.7041 0.0248854 24.7642 0.0691836 24.8084C0.113482 24.8527 0.17356 24.8776 0.236207 24.8776H23.8573C23.9201 25.3875 24.1674 25.8569 24.5525 26.1973C24.9377 26.5376 25.4341 26.7255 25.9482 26.7255C26.4623 26.7255 26.9587 26.5376 27.3438 26.1973C27.7289 25.8569 27.9762 25.3875 28.0391 24.8776H28.0693C28.1309 25.3886 28.3777 25.8594 28.7631 26.201C29.1485 26.5425 29.6457 26.7312 30.1608 26.7312C30.676 26.7312 31.1732 26.5425 31.5586 26.201C31.944 25.8594 32.1908 25.3886 32.2524 24.8776H32.2812C32.3374 25.3931 32.5821 25.8697 32.9684 26.216C33.3546 26.5623 33.8553 26.7538 34.3742 26.7538C34.8931 26.7538 35.3937 26.5623 35.78 26.216C36.1663 25.8697 36.411 25.3931 36.4671 24.8776H82.6271C82.6898 24.8776 82.7499 24.8527 82.7942 24.8084C82.8385 24.7642 82.8633 24.7041 82.8633 24.6415C82.8633 24.5789 82.8385 24.5189 82.7942 24.4746C82.7499 24.4303 82.6898 24.4055 82.6271 24.4055H82.623Z" fill="#00A2A4"/>
<path d="M86.6971 0.749374C86.6345 0.749374 86.5744 0.774254 86.5301 0.818522C86.4858 0.862791 86.4609 0.922819 86.4609 0.985424V36.5554C86.4609 36.618 86.4858 36.678 86.5301 36.7223C86.5744 36.7666 86.6345 36.7914 86.6971 36.7914C86.7598 36.7914 86.8198 36.7666 86.8641 36.7223C86.9084 36.678 86.9333 36.618 86.9333 36.5554V0.978576C86.9316 0.917168 86.9059 0.858867 86.8618 0.816072C86.8177 0.773277 86.7586 0.749348 86.6971 0.749374Z" fill="#00A2A4"/>
</g>
<defs>
<clipPath id="clip0_1257_341">
<rect width="123" height="37" fill="white"/>
</clipPath>
</defs>
</svg>