<?xml version="1.0" encoding="UTF-8"?>
<!DOCTYPE svg PUBLIC "-//W3C//DTD SVG 1.1//EN" "http://www.w3.org/Graphics/SVG/1.1/DTD/svg11.dtd">
<svg xmlns="http://www.w3.org/2000/svg" version="1.1" width="400px" height="157px" style="shape-rendering:geometricPrecision; text-rendering:geometricPrecision; image-rendering:optimizeQuality; fill-rule:evenodd; clip-rule:evenodd" xmlns:xlink="http://www.w3.org/1999/xlink">
<g><path style="opacity:0.835" fill="#5d942a" d="M 384.5,-0.5 C 385.5,-0.5 386.5,-0.5 387.5,-0.5C 387.805,4.76162 387.471,9.92828 386.5,15C 369.873,20.7043 353.54,26.8709 337.5,33.5C 336.209,33.2627 335.209,33.596 334.5,34.5C 332.451,34.2942 332.117,33.4609 333.5,32C 350.903,21.6415 367.903,10.8082 384.5,-0.5 Z"/></g>
<g><path style="opacity:0.978" fill="#5e942b" d="M 334.5,34.5 C 335.791,34.7373 336.791,34.404 337.5,33.5C 358.122,27.2919 378.789,21.2919 399.5,15.5C 399.5,52.8333 399.5,90.1667 399.5,127.5C 387.357,142.238 372.024,151.904 353.5,156.5C 344.167,156.5 334.833,156.5 325.5,156.5C 293.58,149.417 273.08,130.083 264,98.5C 257.781,58.4358 272.614,29.2692 308.5,11C 309.833,10.3333 311.167,10.3333 312.5,11C 318.593,19.1819 324.926,27.1819 331.5,35C 332.749,35.7401 333.749,35.5735 334.5,34.5 Z M 327.5,40.5 C 328.833,53.6497 329.499,67.1497 329.5,81C 329.333,94.5 329.167,108 329,121.5C 303.384,112.274 293.384,94.2738 299,67.5C 304.176,53.8216 313.676,44.8216 327.5,40.5 Z"/></g>
<g><path style="opacity:0.921" fill="#5f952d" d="M 57.5,41.5 C 62.8437,41.334 68.1771,41.5006 73.5,42C 74,42.5 74.5,43 75,43.5C 75.8273,68.0724 75.6607,92.5724 74.5,117C 68.2511,117.809 62.0844,117.642 56,116.5C 55.3333,92.1667 55.3333,67.8333 56,43.5C 56.7172,42.9558 57.2172,42.2891 57.5,41.5 Z"/></g>
<g><path style="opacity:0.93" fill="#5e942b" d="M 144.5,41.5 C 149.897,41.2154 155.23,41.5488 160.5,42.5C 161.333,60.1572 161.833,77.8239 162,95.5C 164.075,97.6483 166.408,97.9817 169,96.5C 169.058,87.7316 169.725,79.065 171,70.5C 176.803,69.1837 182.636,69.1837 188.5,70.5C 189.332,78.4793 189.832,86.4793 190,94.5C 190.374,95.4162 190.874,96.2496 191.5,97C 202.167,97.6667 212.833,97.6667 223.5,97C 226.167,94.6667 226.167,92.3333 223.5,90C 215.5,89.6667 207.5,89.3333 199.5,89C 198.359,83.2496 198.193,77.4163 199,71.5C 199.5,71 200,70.5 200.5,70C 208.5,69.3333 216.5,69.3333 224.5,70C 232.904,71.4504 239.071,75.9504 243,83.5C 247.987,100.025 242.487,111.192 226.5,117C 213.833,117.667 201.167,117.667 188.5,117C 185.61,115.971 182.776,114.805 180,113.5C 167.046,120.326 155.712,118.326 146,107.5C 143.867,103.768 142.534,99.7684 142,95.5C 141.333,78.5 141.333,61.5 142,44.5C 142.698,43.3094 143.531,42.3094 144.5,41.5 Z"/></g>
<g><path style="opacity:0.89" fill="#5d932a" d="M 168.5,43.5 C 173.635,42.4262 177.468,44.0928 180,48.5C 182.897,43.8451 187.063,42.3451 192.5,44C 199.017,49.2903 199.017,54.6237 192.5,60C 187.154,61.6515 182.987,60.1515 180,55.5C 177.459,60.0685 173.625,61.5685 168.5,60C 163.391,56.6338 162.224,52.1338 165,46.5C 166.145,45.3636 167.312,44.3636 168.5,43.5 Z"/></g>
<g><path style="opacity:0.966" fill="#659834" d="M 200.5,41.5 C 214.504,41.3334 228.504,41.5001 242.5,42C 244.434,48.2113 245.101,54.7113 244.5,61.5C 229.496,61.6666 214.496,61.4999 199.5,61C 198.359,55.2496 198.193,49.4163 199,43.5C 199.717,42.9558 200.217,42.2891 200.5,41.5 Z"/></g>
<g><path style="opacity:0.934" fill="#5d942a" d="M -0.5,100.5 C -0.5,95.8333 -0.5,91.1667 -0.5,86.5C 5.99186,72.7499 16.9919,67.0832 32.5,69.5C 45.9411,66.2919 50.6078,71.4585 46.5,85C 47.9097,110.604 36.243,120.604 11.5,115C 5.78001,111.459 1.78001,106.626 -0.5,100.5 Z M 20.5,89.5 C 22.5,89.5 24.5,89.5 26.5,89.5C 26.6633,91.8568 26.4966,94.1902 26,96.5C 19.1239,98.1241 17.2906,95.7907 20.5,89.5 Z"/></g>
<g><path style="opacity:0.928" fill="#5e942b" d="M 86.5,69.5 C 92.4254,69.1918 98.2588,69.5251 104,70.5C 105.747,77.9989 105.913,85.4989 104.5,93C 105.486,97.3349 107.986,98.5016 112,96.5C 112.058,87.7316 112.725,79.065 114,70.5C 119.803,69.1837 125.636,69.1837 131.5,70.5C 132.665,80.1495 132.832,89.8161 132,99.5C 127.463,112.346 118.297,118.513 104.5,118C 105.642,133.164 98.6419,142.331 83.5,145.5C 82.5581,145.392 81.7247,145.059 81,144.5C 80.3333,138.5 80.3333,132.5 81,126.5C 82.5122,125.743 83.8455,124.743 85,123.5C 85.1801,105.427 85.6801,87.4266 86.5,69.5 Z"/></g>
<g><path style="opacity:0.868" fill="#5d942a" d="M 111.5,125.5 C 123.846,125.041 127.18,130.207 121.5,141C 110.903,144.405 106.403,140.572 108,129.5C 109.376,128.295 110.542,126.962 111.5,125.5 Z"/></g>
</svg>
