<?xml version="1.0" encoding="UTF-8"?>
<!DOCTYPE svg PUBLIC "-//W3C//DTD SVG 1.1//EN" "http://www.w3.org/Graphics/SVG/1.1/DTD/svg11.dtd">
<svg xmlns="http://www.w3.org/2000/svg" version="1.1" width="185px" height="70px" style="shape-rendering:geometricPrecision; text-rendering:geometricPrecision; image-rendering:optimizeQuality; fill-rule:evenodd; clip-rule:evenodd" xmlns:xlink="http://www.w3.org/1999/xlink">
<g><path style="opacity:1" fill="#f2f1eb" d="M 154.5,6.5 C 155.097,5.86137 155.93,5.52804 157,5.5C 158.699,5.38655 159.866,6.05322 160.5,7.5C 158.565,6.85048 156.565,6.51715 154.5,6.5 Z"/></g>
<g><path style="opacity:1" fill="#e6e5d8" d="M 154.5,6.5 C 153.341,8.25027 151.674,9.25027 149.5,9.5C 150.659,7.74973 152.326,6.74973 154.5,6.5 Z"/></g>
<g><path style="opacity:1" fill="#7f7b3c" d="M 154.5,6.5 C 156.565,6.51715 158.565,6.85048 160.5,7.5C 161.659,9.25027 163.326,10.2503 165.5,10.5C 168.331,11.0787 170.664,12.412 172.5,14.5C 174.5,16.1667 176.5,17.8333 178.5,19.5C 174.495,20.4977 171.161,22.4977 168.5,25.5C 164.563,27.8067 160.563,30.1401 156.5,32.5C 153.103,30.4741 149.77,28.4741 146.5,26.5C 145.942,25.2101 144.942,24.3768 143.5,24C 147.237,22.1111 150.904,22.2778 154.5,24.5C 155.167,24.5 155.5,24.8333 155.5,25.5C 156.779,26.7152 157.779,26.3818 158.5,24.5C 159.514,23.3263 160.847,22.6596 162.5,22.5C 164.674,22.2503 166.341,21.2503 167.5,19.5C 168.718,17.6682 168.051,16.6682 165.5,16.5C 163.181,16.0075 161.181,15.0075 159.5,13.5C 157.5,10.8333 155.5,10.8333 153.5,13.5C 150.76,15.5595 147.76,17.2262 144.5,18.5C 141.658,19.1723 139.158,20.5056 137,22.5C 136.168,30.5208 136.335,38.5208 137.5,46.5C 139.243,48.0383 141.243,49.0383 143.5,49.5C 144.492,49.3284 145.158,49.6618 145.5,50.5C 145.973,51.9063 146.973,52.573 148.5,52.5C 150.153,52.6596 151.486,53.3263 152.5,54.5C 154.572,57.7339 156.905,58.0672 159.5,55.5C 159.842,54.6618 160.508,54.3284 161.5,54.5C 163.027,54.573 164.027,53.9063 164.5,52.5C 165.514,51.3263 166.847,50.6596 168.5,50.5C 171.511,49.3307 174.178,47.664 176.5,45.5C 177.328,39.0126 177.828,32.346 178,25.5C 178.717,24.9558 179.217,24.2891 179.5,23.5C 180.825,27.2762 181.491,31.4428 181.5,36C 181.333,40.1667 181.167,44.3333 181,48.5C 178.674,50.0657 176.508,51.7324 174.5,53.5C 172.337,55.0828 170.004,56.4161 167.5,57.5C 165.973,57.427 164.973,58.0937 164.5,59.5C 163.486,60.6737 162.153,61.3404 160.5,61.5C 158.565,62.1495 156.565,62.4828 154.5,62.5C 153.508,62.6716 152.842,62.3382 152.5,61.5C 152.027,60.0937 151.027,59.427 149.5,59.5C 147.992,56.9074 145.659,55.5741 142.5,55.5C 140.847,55.3404 139.514,54.6737 138.5,53.5C 136.5,51.8333 134.5,50.1667 132.5,48.5C 132.5,39.1667 132.5,29.8333 132.5,20.5C 135.167,18.5 137.833,16.5 140.5,14.5C 140.842,13.6618 141.508,13.3284 142.5,13.5C 144.027,13.573 145.027,12.9063 145.5,11.5C 146.514,10.3263 147.847,9.6596 149.5,9.5C 151.674,9.25027 153.341,8.25027 154.5,6.5 Z"/></g>
<g><path style="opacity:1" fill="#e4e3d5" d="M 160.5,7.5 C 162.674,7.74973 164.341,8.74973 165.5,10.5C 163.326,10.2503 161.659,9.25027 160.5,7.5 Z"/></g>
<g><path style="opacity:1" fill="#ecebe1" d="M 159.5,13.5 C 157.5,12.1667 155.5,12.1667 153.5,13.5C 155.5,10.8333 157.5,10.8333 159.5,13.5 Z"/></g>
<g><path style="opacity:1" fill="#e1e0d1" d="M 145.5,11.5 C 145.027,12.9063 144.027,13.573 142.5,13.5C 142.973,12.0937 143.973,11.427 145.5,11.5 Z"/></g>
<g><path style="opacity:1" fill="#fefefc" d="M 119.5,16.5 C 120.209,15.596 121.209,15.2627 122.5,15.5C 122.821,21.0262 122.488,26.3595 121.5,31.5C 122.108,26.0557 121.442,21.0557 119.5,16.5 Z"/></g>
<g><path style="opacity:1" fill="#efeee6" d="M 140.5,14.5 C 137.833,16.5 135.167,18.5 132.5,20.5C 132.167,20.5 131.833,20.5 131.5,20.5C 133.562,17.2881 136.562,15.2881 140.5,14.5 Z"/></g>
<g><path style="opacity:1" fill="#ecece2" d="M 172.5,14.5 C 175.554,15.1963 178.22,16.6963 180.5,19C 179.906,19.4643 179.239,19.631 178.5,19.5C 176.5,17.8333 174.5,16.1667 172.5,14.5 Z"/></g>
<g><path style="opacity:1" fill="#fafaf6" d="M 32.5,31.5 C 31.791,32.404 30.791,32.7373 29.5,32.5C 29.334,27.1563 29.5006,21.8229 30,16.5C 31.0113,15.6634 32.1779,15.33 33.5,15.5C 33.8214,21.0262 33.4881,26.3595 32.5,31.5 Z"/></g>
<g><path style="opacity:1" fill="#cdcab0" d="M 35.5,32.5 C 36.1834,30.8235 37.5168,30.1568 39.5,30.5C 39.5,26.8333 39.5,23.1667 39.5,19.5C 41.8363,18.1431 44.1696,16.8097 46.5,15.5C 46.8288,21.2055 46.4954,26.8722 45.5,32.5C 44.2807,31.7366 43.2807,30.7366 42.5,29.5C 40.9292,32.0934 38.5959,33.0934 35.5,32.5 Z"/></g>
<g><path style="opacity:1" fill="#e8e7db" d="M 165.5,16.5 C 168.051,16.6682 168.718,17.6682 167.5,19.5C 166.833,18.5 166.167,17.5 165.5,16.5 Z"/></g>
<g><path style="opacity:1" fill="#aaa77d" d="M 32.5,31.5 C 31.1952,29.6028 30.5286,27.2695 30.5,24.5C 30.386,21.6364 30.886,18.9698 32,16.5C 32.4993,21.4889 32.6659,26.4889 32.5,31.5 Z"/></g>
<g><path style="opacity:1" fill="#f9f9f5" d="M 119.5,16.5 C 118.892,21.9443 119.558,26.9443 121.5,31.5C 120.791,32.404 119.791,32.7373 118.5,32.5C 118.179,26.9738 118.512,21.6405 119.5,16.5 Z"/></g>
<g><path style="opacity:1" fill="#a6a377" d="M 119.5,16.5 C 121.442,21.0557 122.108,26.0557 121.5,31.5C 119.558,26.9443 118.892,21.9443 119.5,16.5 Z"/></g>
<g><path style="opacity:1" fill="#dcdac8" d="M 2.5,17.5 C 10.1739,17.3336 17.8406,17.5003 25.5,18C 26.8333,19 26.8333,20 25.5,21C 17.5069,21.4997 9.50694,21.6664 1.5,21.5C 1.43255,20.0413 1.76589,18.7079 2.5,17.5 Z"/></g>
<g><path style="opacity:1" fill="#f1f1ea" d="M 92.5,16.5 C 92.8212,14.9519 93.8212,14.2852 95.5,14.5C 95.5,16.8333 95.5,19.1667 95.5,21.5C 92.5,21.5 89.5,21.5 86.5,21.5C 87.2049,18.4572 89.2049,16.7905 92.5,16.5 Z"/></g>
<g><path style="opacity:1" fill="#8a874e" d="M 92.5,16.5 C 94.1765,17.1834 94.8432,18.5168 94.5,20.5C 92.4727,20.6621 90.4727,20.4955 88.5,20C 89.7932,19.51 91.1266,19.3433 92.5,19.5C 92.5,18.5 92.5,17.5 92.5,16.5 Z"/></g>
<g><path style="opacity:1" fill="#e0decd" d="M 100.5,17.5 C 103.397,17.1253 106.063,17.6253 108.5,19C 105.998,21.212 102.998,22.0453 99.5,21.5C 99.4326,20.0413 99.7659,18.7079 100.5,17.5 Z"/></g>
<g><path style="opacity:1" fill="#f2f1ea" d="M 115.5,17.5 C 117.176,18.1834 117.843,19.5168 117.5,21.5C 113.437,21.384 112.77,20.0507 115.5,17.5 Z"/></g>
<g><path style="opacity:1" fill="#e7e6da" d="M 167.5,19.5 C 166.341,21.2503 164.674,22.2503 162.5,22.5C 163.659,20.7497 165.326,19.7497 167.5,19.5 Z"/></g>
<g><path style="opacity:1" fill="#c5c3a5" d="M 131.5,20.5 C 131.833,20.5 132.167,20.5 132.5,20.5C 132.5,29.8333 132.5,39.1667 132.5,48.5C 132.167,48.5 131.833,48.5 131.5,48.5C 130.167,39.1667 130.167,29.8333 131.5,20.5 Z"/></g>
<g><path style="opacity:1" fill="#e8e8dc" d="M 154.5,24.5 C 150.904,22.2778 147.237,22.1111 143.5,24C 144.942,24.3768 145.942,25.2101 146.5,26.5C 144.689,26.428 143.356,25.5947 142.5,24C 146.689,19.2574 150.689,19.4241 154.5,24.5 Z"/></g>
<g><path style="opacity:1" fill="#f5f5ef" d="M 174.5,53.5 C 176.508,51.7324 178.674,50.0657 181,48.5C 181.167,44.3333 181.333,40.1667 181.5,36C 181.491,31.4428 180.825,27.2762 179.5,23.5C 179.811,22.5222 180.478,21.8555 181.5,21.5C 182.665,30.8155 182.832,40.1489 182,49.5C 179.815,51.5402 177.315,52.8736 174.5,53.5 Z"/></g>
<g><path style="opacity:1" fill="#f1f0e9" d="M 178.5,19.5 C 175.506,21.9998 172.173,23.9998 168.5,25.5C 171.161,22.4977 174.495,20.4977 178.5,19.5 Z"/></g>
<g><path style="opacity:1" fill="#e8e7dc" d="M 86.5,29.5 C 85.71,28.3915 85.21,27.0581 85,25.5C 84.79,27.0581 84.29,28.3915 83.5,29.5C 83.1505,26.9552 83.9838,24.9552 86,23.5C 86.4955,25.4727 86.6621,27.4727 86.5,29.5 Z"/></g>
<g><path style="opacity:1" fill="#f3f2ec" d="M 144.5,18.5 C 142.519,20.3031 140.352,21.9697 138,23.5C 137.169,30.856 137.335,38.1893 138.5,45.5C 140.419,46.6125 142.086,47.9458 143.5,49.5C 141.243,49.0383 139.243,48.0383 137.5,46.5C 136.335,38.5208 136.168,30.5208 137,22.5C 139.158,20.5056 141.658,19.1723 144.5,18.5 Z"/></g>
<g><path style="opacity:1" fill="#ecebe1" d="M 92.5,29.5 C 91.71,28.3915 91.21,27.0581 91,25.5C 90.5065,27.1341 90.3398,28.8008 90.5,30.5C 88.901,30.7678 87.5676,30.4345 86.5,29.5C 87.5,29.5 88.5,29.5 89.5,29.5C 89.0769,26.7118 90.0769,24.7118 92.5,23.5C 92.7463,25.2195 92.7463,27.2195 92.5,29.5 Z"/></g>
<g><path style="opacity:1" fill="#e2e1d3" d="M 106.5,23.5 C 107.376,23.3691 108.043,23.7025 108.5,24.5C 107.607,27.0841 107.274,29.7508 107.5,32.5C 104.833,32.5 102.167,32.5 99.5,32.5C 99.5,31.5 99.5,30.5 99.5,29.5C 101.167,29.5 102.833,29.5 104.5,29.5C 104.259,27.1137 104.925,25.1137 106.5,23.5 Z"/></g>
<g><path style="opacity:1" fill="#d0cfb7" d="M 158.5,24.5 C 157.779,26.3818 156.779,26.7152 155.5,25.5C 156.391,24.8902 157.391,24.5569 158.5,24.5 Z"/></g>
<g><path style="opacity:1" fill="#f7f6f2" d="M 176.5,26.5 C 176.5,32.8333 176.5,39.1667 176.5,45.5C 174.178,47.664 171.511,49.3307 168.5,50.5C 170.146,48.2486 172.313,46.582 175,45.5C 175.172,38.9867 175.672,32.6534 176.5,26.5 Z"/></g>
<g><path style="opacity:1" fill="#c1c0a1" d="M 179.5,23.5 C 179.217,24.2891 178.717,24.9558 178,25.5C 177.828,32.346 177.328,39.0126 176.5,45.5C 176.5,39.1667 176.5,32.8333 176.5,26.5C 176.5,24.5 177.5,23.5 179.5,23.5 Z"/></g>
<g><path style="opacity:1" fill="#f2f2eb" d="M 27.5,30.5 C 27.1667,23.8333 26.8333,23.8333 26.5,30.5C 18.0968,29.8665 10.0968,30.5332 2.5,32.5C 1.59603,31.791 1.26269,30.791 1.5,29.5C 9.5,29.5 17.5,29.5 25.5,29.5C 25.1505,26.9552 25.9838,24.9552 28,23.5C 28.7958,26.0385 28.6291,28.3718 27.5,30.5 Z"/></g>
<g><path style="opacity:1" fill="#f9f8f5" d="M 39.5,19.5 C 39.5,23.1667 39.5,26.8333 39.5,30.5C 37.5168,30.1568 36.1834,30.8235 35.5,32.5C 34.596,31.791 34.2627,30.791 34.5,29.5C 35.8333,29.5 37.1667,29.5 38.5,29.5C 38.1872,25.9581 38.5206,22.6248 39.5,19.5 Z"/></g>
<g><path style="opacity:1" fill="#f8f8f3" d="M 83.5,29.5 C 71.8333,30.1667 60.1667,30.8333 48.5,31.5C 48.5,31.8333 48.5,32.1667 48.5,32.5C 47.596,31.791 47.2627,30.791 47.5,29.5C 59.5,29.5 71.5,29.5 83.5,29.5 Z"/></g>
<g><path style="opacity:1" fill="#ebebe0" d="M 116.5,30.5 C 116.547,24.1468 115.881,23.9801 114.5,30C 108.136,30.9812 108.469,31.4812 115.5,31.5C 113.393,32.4682 111.059,32.8016 108.5,32.5C 108.5,31.5 108.5,30.5 108.5,29.5C 110.167,29.5 111.833,29.5 113.5,29.5C 113.022,26.7224 114.022,24.7224 116.5,23.5C 117.797,25.9732 117.797,28.3066 116.5,30.5 Z"/></g>
<g><path style="opacity:1" fill="#aeac85" d="M 142.5,28.5 C 141.198,33.7337 141.198,39.0671 142.5,44.5C 141.186,42.0849 140.519,39.2515 140.5,36C 140.833,33.1667 141.167,30.3333 141.5,27.5C 142.107,27.6236 142.44,27.9569 142.5,28.5 Z"/></g>
<g><path style="opacity:1" fill="#73702b" d="M 86.5,29.5 C 87.5676,30.4345 88.901,30.7678 90.5,30.5C 90.3398,28.8008 90.5065,27.1341 91,25.5C 91.21,27.0581 91.71,28.3915 92.5,29.5C 93.5676,30.4345 94.901,30.7678 96.5,30.5C 96.5,28.8333 96.5,27.1667 96.5,25.5C 97.4614,27.2646 97.7947,29.2646 97.5,31.5C 81.1667,31.5 64.8333,31.5 48.5,31.5C 60.1667,30.8333 71.8333,30.1667 83.5,29.5C 84.29,28.3915 84.79,27.0581 85,25.5C 85.21,27.0581 85.71,28.3915 86.5,29.5 Z"/></g>
<g><path style="opacity:1" fill="#f5f4ef" d="M 96.5,25.5 C 96.5,27.1667 96.5,28.8333 96.5,30.5C 94.901,30.7678 93.5676,30.4345 92.5,29.5C 93.5,29.5 94.5,29.5 95.5,29.5C 95.2322,27.901 95.5655,26.5676 96.5,25.5 Z"/></g>
<g><path style="opacity:1" fill="#6d6a23" d="M 105.5,25.5 C 106.461,27.2646 106.795,29.2646 106.5,31.5C 104.473,31.6621 102.473,31.4955 100.5,31C 102.134,30.5065 103.801,30.3398 105.5,30.5C 105.5,28.8333 105.5,27.1667 105.5,25.5 Z"/></g>
<g><path style="opacity:1" fill="#88844a" d="M 116.5,30.5 C 116.5,31.1667 116.167,31.5 115.5,31.5C 108.469,31.4812 108.136,30.9812 114.5,30C 115.881,23.9801 116.547,24.1468 116.5,30.5 Z"/></g>
<g><path style="opacity:1" fill="#74712d" d="M 142.5,28.5 C 145.678,31.2583 149.345,33.2583 153.5,34.5C 154.659,36.3769 156.326,36.8769 158.5,36C 162.833,33.5 167.167,31 171.5,28.5C 172.494,33.456 172.827,38.456 172.5,43.5C 171.71,44.4013 170.71,45.0679 169.5,45.5C 166.669,46.0787 164.336,47.412 162.5,49.5C 160.516,50.1557 158.516,50.8224 156.5,51.5C 153.632,49.8999 150.632,48.5665 147.5,47.5C 146.508,47.6716 145.842,47.3382 145.5,46.5C 145.027,45.0937 144.027,44.427 142.5,44.5C 141.198,39.0671 141.198,33.7337 142.5,28.5 Z"/></g>
<g><path style="opacity:1" fill="#f3f2ec" d="M 172.5,43.5 C 172.827,38.456 172.494,33.456 171.5,28.5C 167.167,31 162.833,33.5 158.5,36C 156.326,36.8769 154.659,36.3769 153.5,34.5C 154.583,34.5394 155.583,34.8728 156.5,35.5C 160.833,33 165.167,30.5 169.5,28C 170.793,27.51 172.127,27.3433 173.5,27.5C 173.821,33.0262 173.488,38.3595 172.5,43.5 Z"/></g>
<g><path style="opacity:1" fill="#a39f72" d="M 27.5,30.5 C 19.5671,32.4684 11.2337,33.135 2.5,32.5C 10.0968,30.5332 18.0968,29.8665 26.5,30.5C 26.8333,23.8333 27.1667,23.8333 27.5,30.5 Z"/></g>
<g><path style="opacity:1" fill="#c8c6ab" d="M 48.5,32.5 C 48.5,32.1667 48.5,31.8333 48.5,31.5C 64.8333,31.5 81.1667,31.5 97.5,31.5C 97.7947,29.2646 97.4614,27.2646 96.5,25.5C 96.7828,24.7109 97.2828,24.0442 98,23.5C 98.498,26.4816 98.6646,29.4816 98.5,32.5C 81.8333,32.5 65.1667,32.5 48.5,32.5 Z"/></g>
<g><path style="opacity:1" fill="#f3f3ec" d="M 142.5,28.5 C 144.308,28.4914 145.975,28.9914 147.5,30C 149.747,31.2775 151.747,32.7775 153.5,34.5C 149.345,33.2583 145.678,31.2583 142.5,28.5 Z"/></g>
<g><path style="opacity:1" fill="#c8c5a9" d="M 18.5,38.5 C 19.8117,40.7432 20.4783,43.4098 20.5,46.5C 20.1667,49.1667 19.8333,51.8333 19.5,54.5C 18.914,54.2907 18.414,53.9574 18,53.5C 17.2223,48.4158 17.3889,43.4158 18.5,38.5 Z"/></g>
<g><path style="opacity:1" fill="#fefefd" d="M 100.5,41.5 C 102.607,40.5318 104.941,40.1984 107.5,40.5C 107.737,41.791 107.404,42.791 106.5,43.5C 105.082,41.6921 103.082,41.0254 100.5,41.5 Z"/></g>
<g><path style="opacity:1" fill="#dddbca" d="M 85.5,40.5 C 87.0481,40.8212 87.7148,41.8212 87.5,43.5C 84.7524,43.5983 84.0857,42.5983 85.5,40.5 Z"/></g>
<g><path style="opacity:1" fill="#fefefd" d="M 2.5,43.5 C 3.20895,42.596 4.20895,42.2627 5.5,42.5C 5.8064,45.3854 5.47307,48.0521 4.5,50.5C 5.01017,47.6122 4.34351,45.2789 2.5,43.5 Z"/></g>
<g><path style="opacity:1" fill="#e1dfcf" d="M 7.5,40.5 C 8.5,40.5 9.5,40.5 10.5,40.5C 10.5,41.5 10.5,42.5 10.5,43.5C 9.5,43.5 8.5,43.5 7.5,43.5C 7.5,42.5 7.5,41.5 7.5,40.5 Z"/></g>
<g><path style="opacity:1" fill="#989562" d="M 100.5,41.5 C 103.082,41.0254 105.082,41.6921 106.5,43.5C 104.076,43.8076 101.743,43.4742 99.5,42.5C 99.6236,41.8933 99.9569,41.56 100.5,41.5 Z"/></g>
<g><path style="opacity:1" fill="#f8f7f3" d="M 2.5,43.5 C 1.19833,54.5495 5.53166,57.5495 15.5,52.5C 15.5858,53.4959 15.2524,54.3292 14.5,55C 3.18182,58.18 -0.818179,54.3467 2.5,43.5 Z"/></g>
<g><path style="opacity:1" fill="#9a9665" d="M 15.5,52.5 C 5.53166,57.5495 1.19833,54.5495 2.5,43.5C 4.34351,45.2789 5.01017,47.6122 4.5,50.5C 4.61071,51.1174 4.94404,51.6174 5.5,52C 7.83333,52.6667 10.1667,52.6667 12.5,52C 13.1334,48.541 13.8,45.041 14.5,41.5C 15.086,41.2907 15.586,40.9574 16,40.5C 15.6467,44.4127 15.48,48.4127 15.5,52.5 Z"/></g>
<g><path style="opacity:1" fill="#e7e6da" d="M 142.5,44.5 C 144.027,44.427 145.027,45.0937 145.5,46.5C 143.973,46.573 142.973,45.9063 142.5,44.5 Z"/></g>
<g><path style="opacity:1" fill="#9c9968" d="M 49.5,52.5 C 49.5,51.5 49.5,50.5 49.5,49.5C 46.6965,48.3622 43.6965,48.1955 40.5,49C 39.4178,50.3297 38.7512,51.8297 38.5,53.5C 38.5,54.1667 38.1667,54.5 37.5,54.5C 35.5853,54.7845 33.9187,54.4511 32.5,53.5C 32.5,53.1667 32.5,52.8333 32.5,52.5C 33.9778,52.762 35.3112,52.4287 36.5,51.5C 37.0351,49.739 38.0351,48.4057 39.5,47.5C 42.7431,46.42 46.0764,46.2534 49.5,47C 51.5763,48.8841 51.9097,51.0508 50.5,53.5C 49.8933,53.3764 49.56,53.0431 49.5,52.5 Z M 49.5,49.5 C 49.5,50.5 49.5,51.5 49.5,52.5C 46.4281,52.8174 43.4281,52.4841 40.5,51.5C 40.7093,50.914 41.0426,50.414 41.5,50C 44.146,49.5026 46.8127,49.3359 49.5,49.5 Z"/></g>
<g><path style="opacity:1" fill="#94905c" d="M 79.5,53.5 C 79.7678,51.901 79.4345,50.5676 78.5,49.5C 75.6965,48.3622 72.6965,48.1955 69.5,49C 68.4178,50.3297 67.7512,51.8297 67.5,53.5C 67.5,54.1667 67.1667,54.5 66.5,54.5C 64.5853,54.7845 62.9187,54.4511 61.5,53.5C 61.5,53.1667 61.5,52.8333 61.5,52.5C 62.9778,52.762 64.3112,52.4287 65.5,51.5C 66.5207,50.0986 67.5207,48.7653 68.5,47.5C 71.7431,46.42 75.0764,46.2534 78.5,47C 80.6082,49.0164 80.9416,51.1831 79.5,53.5 Z M 78.5,49.5 C 78.5,50.5 78.5,51.5 78.5,52.5C 75.5,52.5 72.5,52.5 69.5,52.5C 69.4142,51.5041 69.7476,50.6708 70.5,50C 73.146,49.5026 75.8127,49.3359 78.5,49.5 Z"/></g>
<g><path style="opacity:1" fill="#aaa67b" d="M 94.5,52.5 C 94.5,51.5 94.5,50.5 94.5,49.5C 91.2869,49.81 88.2869,49.4767 85.5,48.5C 86.5145,47.2353 88.0145,46.5687 90,46.5C 95.4699,46.1268 97.3033,48.4602 95.5,53.5C 94.8933,53.3764 94.56,53.0431 94.5,52.5 Z"/></g>
<g><path style="opacity:1" fill="#f0efe8" d="M 169.5,45.5 C 167.664,47.588 165.331,48.9213 162.5,49.5C 164.336,47.412 166.669,46.0787 169.5,45.5 Z"/></g>
<g><path style="opacity:1" fill="#d4d3bd" d="M 61.5,52.5 C 60.71,51.3915 60.21,50.0581 60,48.5C 59.79,50.0581 59.29,51.3915 58.5,52.5C 58.3398,50.8008 58.5065,49.1341 59,47.5C 60.0495,46.4829 61.2161,46.3162 62.5,47C 61.5939,48.6995 61.2606,50.5328 61.5,52.5 Z"/></g>
<g><path style="opacity:1" fill="#eae9df" d="M 32.5,52.5 C 31.71,51.3915 31.21,50.0581 31,48.5C 30.7266,50.1012 30.2266,51.6012 29.5,53C 27.1667,53.3333 24.8333,53.6667 22.5,54C 25.146,54.4974 27.8127,54.6641 30.5,54.5C 27.7131,55.4767 24.7131,55.81 21.5,55.5C 21.5,54.5 21.5,53.5 21.5,52.5C 23.8333,52.5 26.1667,52.5 28.5,52.5C 27.8872,49.0306 29.2206,47.0306 32.5,46.5C 32.5,48.5 32.5,50.5 32.5,52.5 Z"/></g>
<g><path style="opacity:1" fill="#f4f3ed" d="M 69.5,54.5 C 73.0419,54.8128 76.3752,54.4794 79.5,53.5C 80.9416,51.1831 80.6082,49.0164 78.5,47C 75.0764,46.2534 71.7431,46.42 68.5,47.5C 69.8714,46.2132 71.7047,45.5465 74,45.5C 81.1294,45.4377 83.6294,48.7711 81.5,55.5C 77.2984,55.8168 73.2984,55.4834 69.5,54.5 Z"/></g>
<g><path style="opacity:1" fill="#dedccb" d="M 114.5,46.5 C 118.831,44.3444 121.497,45.6777 122.5,50.5C 122.439,52.6528 121.439,53.9862 119.5,54.5C 122.055,48.9245 120.388,46.2578 114.5,46.5 Z"/></g>
<g><path style="opacity:1" fill="#e9e9de" d="M 147.5,47.5 C 150.632,48.5665 153.632,49.8999 156.5,51.5C 158.516,50.8224 160.516,50.1557 162.5,49.5C 160.911,51.3056 158.911,52.6389 156.5,53.5C 153.262,51.7247 150.262,49.7247 147.5,47.5 Z"/></g>
<g><path style="opacity:1" fill="#f5f4ef" d="M 131.5,48.5 C 131.833,48.5 132.167,48.5 132.5,48.5C 134.5,50.1667 136.5,51.8333 138.5,53.5C 135.166,53.0195 132.833,51.3528 131.5,48.5 Z"/></g>
<g><path style="opacity:1" fill="#6f6b25" d="M 61.5,52.5 C 61.5,52.8333 61.5,53.1667 61.5,53.5C 60.5084,53.3284 59.8417,53.6618 59.5,54.5C 57.8008,54.6602 56.1341,54.4935 54.5,54C 56.0581,53.79 57.3915,53.29 58.5,52.5C 59.29,51.3915 59.79,50.0581 60,48.5C 60.21,50.0581 60.71,51.3915 61.5,52.5 Z"/></g>
<g><path style="opacity:1" fill="#f6f6f1" d="M 78.5,49.5 C 75.8127,49.3359 73.146,49.5026 70.5,50C 69.7476,50.6708 69.4142,51.5041 69.5,52.5C 69.5,53.1667 69.5,53.8333 69.5,54.5C 68.8333,54.1667 68.1667,53.8333 67.5,53.5C 67.7512,51.8297 68.4178,50.3297 69.5,49C 72.6965,48.1955 75.6965,48.3622 78.5,49.5 Z"/></g>
<g><path style="opacity:1" fill="#ebeadf" d="M 145.5,50.5 C 147.027,50.427 148.027,51.0937 148.5,52.5C 146.973,52.573 145.973,51.9063 145.5,50.5 Z"/></g>
<g><path style="opacity:1" fill="#e1dfd0" d="M 38.5,53.5 C 38.7512,51.8297 39.4178,50.3297 40.5,49C 43.6965,48.1955 46.6965,48.3622 49.5,49.5C 46.8127,49.3359 44.146,49.5026 41.5,50C 41.0426,50.414 40.7093,50.914 40.5,51.5C 43.4281,52.4841 46.4281,52.8174 49.5,52.5C 49.56,53.0431 49.8933,53.3764 50.5,53.5C 51.9097,51.0508 51.5763,48.8841 49.5,47C 46.0764,46.2534 42.7431,46.42 39.5,47.5C 40.8714,46.2132 42.7047,45.5465 45,45.5C 51.7587,44.9332 54.092,47.9332 52,54.5C 47.2726,56.066 42.7726,55.7327 38.5,53.5 Z M 49.5,49.5 C 49.5,50.5 49.5,51.5 49.5,52.5C 46.4281,52.8174 43.4281,52.4841 40.5,51.5C 40.7093,50.914 41.0426,50.414 41.5,50C 44.146,49.5026 46.8127,49.3359 49.5,49.5 Z"/></g>
<g><path style="opacity:1" fill="#adaa81" d="M 78.5,49.5 C 79.4345,50.5676 79.7678,51.901 79.5,53.5C 76.3752,54.4794 73.0419,54.8128 69.5,54.5C 69.5,53.8333 69.5,53.1667 69.5,52.5C 72.5,52.5 75.5,52.5 78.5,52.5C 78.5,51.5 78.5,50.5 78.5,49.5 Z"/></g>
<g><path style="opacity:1" fill="#69661d" d="M 32.5,52.5 C 32.5,52.8333 32.5,53.1667 32.5,53.5C 31.5084,53.3284 30.8417,53.6618 30.5,54.5C 27.8127,54.6641 25.146,54.4974 22.5,54C 24.8333,53.6667 27.1667,53.3333 29.5,53C 30.2266,51.6012 30.7266,50.1012 31,48.5C 31.21,50.0581 31.71,51.3915 32.5,52.5 Z"/></g>
<g><path style="opacity:1" fill="#8d8952" d="M 114.5,46.5 C 120.388,46.2578 122.055,48.9245 119.5,54.5C 118.127,54.6567 116.793,54.49 115.5,54C 116.737,53.7679 117.737,53.2679 118.5,52.5C 119.434,51.4324 119.768,50.099 119.5,48.5C 117.219,48.0773 115.552,48.744 114.5,50.5C 114.5,51.1667 114.5,51.8333 114.5,52.5C 114.167,52.5 113.833,52.5 113.5,52.5C 112.5,52.8333 111.833,53.5 111.5,54.5C 108.075,54.6332 107.742,53.9665 110.5,52.5C 111.351,50.1184 112.684,48.1184 114.5,46.5 Z M 118.5,52.5 C 117.167,52.5 115.833,52.5 114.5,52.5C 114.5,51.8333 114.5,51.1667 114.5,50.5C 115.708,49.7659 117.041,49.4326 118.5,49.5C 118.5,50.5 118.5,51.5 118.5,52.5 Z"/></g>
<g><path style="opacity:1" fill="#f6f5f0" d="M 118.5,52.5 C 118.5,51.5 118.5,50.5 118.5,49.5C 117.041,49.4326 115.708,49.7659 114.5,50.5C 115.552,48.744 117.219,48.0773 119.5,48.5C 119.768,50.099 119.434,51.4324 118.5,52.5 Z"/></g>
<g><path style="opacity:1" fill="#cfcdb5" d="M 164.5,52.5 C 164.027,53.9063 163.027,54.573 161.5,54.5C 161.973,53.0937 162.973,52.427 164.5,52.5 Z"/></g>
<g><path style="opacity:1" fill="#f4f3ed" d="M 30.5,54.5 C 30.8417,53.6618 31.5084,53.3284 32.5,53.5C 33.9187,54.4511 35.5853,54.7845 37.5,54.5C 35.2743,55.7563 32.941,55.7563 30.5,54.5 Z"/></g>
<g><path style="opacity:1" fill="#e8e7dc" d="M 58.5,52.5 C 57.3915,53.29 56.0581,53.79 54.5,54C 56.1341,54.4935 57.8008,54.6602 59.5,54.5C 57.7354,55.4614 55.7354,55.7947 53.5,55.5C 53.5,54.5 53.5,53.5 53.5,52.5C 55.1667,52.5 56.8333,52.5 58.5,52.5 Z"/></g>
<g><path style="opacity:1" fill="#f5f5ef" d="M 59.5,54.5 C 59.8417,53.6618 60.5084,53.3284 61.5,53.5C 62.9187,54.4511 64.5853,54.7845 66.5,54.5C 64.2743,55.7563 61.941,55.7563 59.5,54.5 Z"/></g>
<g><path style="opacity:1" fill="#dad7c4" d="M 98.5,52.5 C 97.596,53.209 97.2627,54.209 97.5,55.5C 92.5,55.5 87.5,55.5 82.5,55.5C 82.5,54.5 82.5,53.5 82.5,52.5C 86.5,52.5 90.5,52.5 94.5,52.5C 94.56,53.0431 94.8933,53.3764 95.5,53.5C 97.3033,48.4602 95.4699,46.1268 90,46.5C 88.0145,46.5687 86.5145,47.2353 85.5,48.5C 84.596,47.791 84.2627,46.791 84.5,45.5C 88.1817,45.3347 91.8484,45.5014 95.5,46C 97.4506,47.7342 98.4506,49.9009 98.5,52.5 Z"/></g>
<g><path style="opacity:1" fill="#efefe6" d="M 110.5,52.5 C 107.742,53.9665 108.075,54.6332 111.5,54.5C 107.516,55.0241 103.182,55.3574 98.5,55.5C 98.5,54.5 98.5,53.5 98.5,52.5C 100.167,52.5 101.833,52.5 103.5,52.5C 102.599,48.7593 103.932,46.7593 107.5,46.5C 107.5,48.5 107.5,50.5 107.5,52.5C 108.5,52.5 109.5,52.5 110.5,52.5 Z"/></g>
<g><path style="opacity:1" fill="#88844a" d="M 105.5,47.5 C 108.014,53.4927 106.014,55.6594 99.5,54C 101.134,53.5065 102.801,53.3398 104.5,53.5C 104.325,51.3792 104.659,49.3792 105.5,47.5 Z"/></g>
<g><path style="opacity:1" fill="#ecece2" d="M 113.5,52.5 C 113.833,53.8333 114.167,53.8333 114.5,52.5C 115.833,52.5 117.167,52.5 118.5,52.5C 117.737,53.2679 116.737,53.7679 115.5,54C 116.793,54.49 118.127,54.6567 119.5,54.5C 116.995,55.4967 114.328,55.4967 111.5,54.5C 111.833,53.5 112.5,52.8333 113.5,52.5 Z"/></g>
<g><path style="opacity:1" fill="#f1f1e9" d="M 152.5,54.5 C 154.764,55.2186 157.097,55.552 159.5,55.5C 156.905,58.0672 154.572,57.7339 152.5,54.5 Z"/></g>
<g><path style="opacity:1" fill="#b4b18b" d="M 142.5,55.5 C 145.659,55.5741 147.992,56.9074 149.5,59.5C 146.669,58.9213 144.336,57.588 142.5,55.5 Z"/></g>
<g><path style="opacity:1" fill="#f4f4ee" d="M 167.5,57.5 C 167.027,58.9063 166.027,59.573 164.5,59.5C 164.973,58.0937 165.973,57.427 167.5,57.5 Z"/></g>
<g><path style="opacity:1" fill="#e4e3d5" d="M 149.5,59.5 C 151.027,59.427 152.027,60.0937 152.5,61.5C 150.973,61.573 149.973,60.9063 149.5,59.5 Z"/></g>
<g><path style="opacity:1" fill="#efeee6" d="M 160.5,61.5 C 159.866,62.9468 158.699,63.6134 157,63.5C 155.93,63.472 155.097,63.1386 154.5,62.5C 156.565,62.4828 158.565,62.1495 160.5,61.5 Z"/></g>
</svg>
